<?xml version="1.0" standalone="no"?>
<!DOCTYPE svg PUBLIC "-//W3C//DTD SVG 1.1//EN" "http://www.w3.org/Graphics/SVG/1.1/DTD/svg11.dtd" >
<!--
2013-9-30: Created.
-->
<svg>
<metadata>
Created by iconfont
</metadata>
<defs>

<font id="lay-icon" horiz-adv-x="1024" >
  <font-face
    font-family="lay-icon"
    font-weight="500"
    font-stretch="normal"
    units-per-em="1024"
    ascent="896"
    descent="-128"
  />
    <missing-glyph />
    
    <glyph glyph-name="compare" unicode="&#58905;" d="M467.8 239.8c-5.2 5.2-12.2 8.2-19.8 8.2-7.4 0-14.6-2.8-19.8-8.2-5.2-5.2-8.2-12.2-8.2-19.8 0-7.4 2.8-14.6 8.2-19.8l0.2-0.2 82.2-80.2H332c-40.8 0-67.2 15-83.2 47-16.8 34-18.8 83-18.8 117V554.4c30 5.6 57.4 21 78 43.8 23.2 25.8 36 59 36 93.8 0 77.2-62.8 140-140 140S64 769.2 64 692c0-34 12.4-66.6 34.6-92.2 19.8-22.6 46.2-38.2 75.4-44.6V284c0-29.4 0-84.2 18.8-130.6 23.8-58.6 72-89.4 139.2-89.4h179.4L432-16.4c-10.8-10.8-10.8-28.6 0-39.6l0.2-0.2c5.4-5 12.4-7.8 19.6-7.8 7.6 0 14.6 2.8 19.8 8.2L586.8 59c8.4 8.4 13 19.6 13 31.4 0 11.8-4.6 22.6-13 31l-119 118.4zM204 608c-46.4 0-84 37.6-84 84s37.6 84 84 84 84-37.6 84-84-37.6-84-84-84z m646-395.2V484c0 29.4 0 84.2-18.8 130.6C807.4 673 759.2 704 692 704H512.6l79.4 80.4c10.8 10.8 10.8 28.6 0 39.6l-0.2 0.2c-5.4 5-12.4 7.8-19.6 7.8-7.6 0-14.6-2.8-19.8-8.2L437.2 709c-8.4-8.4-13-19.6-13-31.4 0-11.8 4.6-22.6 13-31l119.2-118.8c5.2-5.2 12.2-8.2 19.8-8.2 7.4 0 14.6 2.8 19.8 8.2 5.2 5.2 8.2 12.2 8.2 19.8 0 7.4-2.8 14.6-8.2 19.8l-0.2 0.2-82.4 80.4H692c40.8 0 67.2-15 83.2-47C792 567 794 518 794 484v-270.4c-30-5.6-57.4-21-78-43.8-23.2-25.8-36-59-36-93.8 0-77.2 62.8-140 140-140s140 62.8 140 140c0 34-12.4 66.6-34.6 92.2-19.8 22.6-46.4 38.2-75.4 44.6zM820-8c-46.4 0-84 37.6-84 84s37.6 84 84 84 84-37.6 84-84-37.6-84-84-84z"  horiz-adv-x="1024" />

    
    <glyph glyph-name="compare-chart" unicode="&#58906;" d="M143.36 315.733a341.333 341.333 0 1 1 682.667 0 341.333 341.333 0 1 1-682.667 0zM812.373 547.84l-81.92-122.88h-40.96l-40.96 40.96h-27.306l-54.614-68.267H512l-54.613 95.574h-54.614l-27.306-40.96h-54.614L266.24 384h-27.307v-300.373h655.36V547.84zM238.933 192.853H307.2l54.613 68.267h81.92l40.96-54.613h81.92L675.84 315.733h81.92L798.72 384h95.573v-300.373h-655.36zM273.067 370.347h-34.134v27.306h20.48l54.614 68.267h54.613l27.307 40.96h69.632l54.613-95.573h39.595l54.613 68.266h39.595l40.96-40.96h28.672l81.92 122.88h88.746v-27.306H819.2l-81.92-122.88h-53.248l-40.96 40.96h-15.019L573.44 384h-69.632l-54.613 95.573H409.6l-27.307-40.96H327.68zM102.4 97.28h819.2v-27.307H102.4z m211.627 81.92h-75.094v27.307h61.44l54.614 68.266h95.573l40.96-54.613h69.632l109.227 109.227h79.189l40.96 68.266h103.765v-27.306h-87.381l-40.96-68.267h-84.65L572.074 192.853h-94.208l-40.96 54.614H368.64z m-211.627 0h54.613v-27.307H102.4z m0 81.92h54.613v-27.307H102.4z m0 81.92h54.613v-27.307H102.4z m0 81.92h54.613v-27.307H102.4z m0 81.92h54.613v-27.307H102.4z m0 81.92h54.613v-27.307H102.4zM184.32 588.8h27.307v-505.173H184.32zM771.413 698.027h27.307v-81.92h-27.307zM744.107 670.72h81.92v-27.307h-81.92z m-177.494-27.307h27.307v-81.92h-27.307zM539.307 616.107h81.92V588.8h-81.92zM675.84 793.6h27.307v-81.92H675.84zM648.533 766.293h81.92v-27.306h-81.92z"  horiz-adv-x="1024" />

    
    <glyph glyph-name="construction" unicode="&#58907;" d="M459.6 628.1c57-1.1 103.4 45.3 102.3 102.3-1 54-44.6 97.5-98.5 98.5-57 1.1-103.4-45.3-102.3-102.3 1-54 44.6-97.5 98.5-98.5zM346.5 226.7s-120.6 58.9-168.7 70.1c-10.5 2.4-21-3.9-23.8-14.2-14.8-54.4-75.4-254.9-93.8-321.2-3.5-12.7 6-25.3 19.3-25.3h35.2c8.1 0 15.3 4.8 18.4 12.3 20.3 48.6 79.6 227.3 88.6 227.3 67.4 0.4 124.1-86.7 121.9-112.8-2.8-32.2-21.2-71-35.6-97.1-7.3-13.3 2.3-29.7 17.5-29.7h40.3c7 0 13.6 3.7 17.2 9.8 36.4 61.2 48.5 99 48.6 121.7 0.4 56.4-54.6 145-85.1 159.1zM957.8-21L789.5 297.5c-27.3 47.3-84.2 13.8-111.5-33.5l-72.9-102.1-38.6 36.5c0.8 4.8 0.8 10.5-0.3 17-12.4 72.1-67.5 318.8-107.8 358.4-1.3 1.3-2.8 2.4-4.5 3.2l-124.8 66.1c-6.3 3.4-13.4 4.9-20.6 4.6-43.5-2.1-142.6-16.6-174.4-21.4-6.3-1-11.8-4.9-14.8-10.5C109 596 80 547.3 63.9 509.3c-6.4-15-3-32.4 8.6-43.9L94 448l74.5-57.5c6.6-5.1 9.4-13.8 6.9-21.8-6.6-20.9-0.7-5.7-3.2-15.5-2.5-9.9 2.8-20.2 12.5-23.7 34.2-12.5 125.6-60.6 160.8-70.6 9.9-2.8 8.2 7.3 12 16.8l-3.9 5.2 219.4-168L485.5-36c-7.7-13.3 1.9-30 17.3-30h429c23.1 0 37.6 25 26 45zM240.1 535.4c-9.6-17.7-18.4-38.3-29.8-67.7-5.1-13.3-22.1-17-32.4-7.2L138 498c-2 1.7 14.9 38.2 25.3 57.5 3.6 6.7 10.6 10.7 18.2 10.5l41.7-1.2c14.8-0.3 24-16.3 16.9-29.4zM378 342l26.8 66.1c7 17.5 32.1 16.5 37.7-1.5 14.4-46.7 34.7-117.2 56.3-164.5L378 342z"  horiz-adv-x="1024" />

    
    <glyph glyph-name="material" unicode="&#58909;" d="M466.45 340.21500000000003h-10.24a93.396 93.396 0 1 0 10.24 0z m0 151.128a57.909 57.909 0 1 1 36.37-103.106 57.203 57.203 0 0 1 21.186 38.842 57.909 57.909 0 0 1-51.2 63.911zM466.626 278.06899999999996a141.241 141.241 0 0 0-17.655 0 156.248 156.248 0 1 0 17.655 0z m0 275.774a120.232 120.232 0 1 1 119.879-133.297 120.408 120.408 0 0 1-105.931 132.59 110.874 110.874 0 0 1-14.477 0.53zM331.211 128.52999999999997a66.56 66.56 0 0 0-10.24 0 93.22 93.22 0 1 0 102.753 83.156 93.396 93.396 0 0 0-92.336-83.156z m0 151.128a57.909 57.909 0 0 1-35.31-12.712 58.086 58.086 0 0 1-8.828-81.39 57.909 57.909 0 0 1 101.34 30.014 58.086 58.086 0 0 1-51.376 63.735zM331.211 66.207h-17.655a155.719 155.719 0 0 0 2.295 309.672 17.655 17.655 0 0 0 3.178-35.31 120.408 120.408 0 0 1-108.05-105.932 120.232 120.232 0 0 1 224.574-70.62 17.655 17.655 0 0 0 30.897-17.656 155.542 155.542 0 0 0-135.239-80.154z m222.985 243.288a17.655 17.655 0 0 0-13.948 6.886 17.655 17.655 0 0 0 3.178 24.717l175.67 136.474 12.887 9.887a185.732 185.732 0 0 1 63.383 66.207 108.05 108.05 0 0 1-9.534 110.168 125.705 125.705 0 0 1-134.356 45.021c-40.254-10.24-74.505-39.018-107.697-66.736-13.065-10.947-26.482-22.07-40.077-32.133l-105.931-77.86a17.655 17.655 0 1 0-20.833 28.426l105.931 77.859c12.888 9.357 25.247 19.774 38.488 30.72 36.193 30.367 73.622 61.793 121.468 73.975a159.78 159.78 0 0 0 171.078-57.732 141.241 141.241 0 0 0 13.771-146.538 217.512 217.512 0 0 0-74.151-79.448c-4.237-3.178-8.475-6.356-12.535-9.71L564.966 313.37800000000004a17.655 17.655 0 0 0-10.77-3.884z m46.08-190.323h-10.24a93.22 93.22 0 0 0 20.303 185.203 92.16 92.16 0 0 0 62.5-34.25 93.22 93.22 0 0 0 19.95-68.503 93.043 93.043 0 0 0-92.513-82.45z m0 150.952a57.909 57.909 0 0 1-36.193-12.712 58.086 58.086 0 1 1 42.549 12.359zM600.276 55.966999999999985H582.62a155.719 155.719 0 0 0-137.71 171.608 152.717 152.717 0 0 0 17.655 56.32 17.655 17.655 0 1 0 31.073-17.655 120.232 120.232 0 1 1 118.819 64.794 17.655 17.655 0 0 0-15.537 19.421 17.655 17.655 0 0 0 19.421 15.537 155.542 155.542 0 0 0-16.066-310.025zM687.316 87.74599999999998a17.655 17.655 0 0 0-13.948 6.71 17.655 17.655 0 0 0 3.178 24.716l176.552 136.475 12.888 9.71a188.734 188.734 0 0 1 62.5 65.677 108.05 108.05 0 0 1-9.534 110.169A125.705 125.705 0 0 1 784.596 486.4a17.655 17.655 0 1 0-8.828 34.074 159.78 159.78 0 0 0 171.079-57.732 141.241 141.241 0 0 0 13.77-146.361 218.041 218.041 0 0 0-74.15-79.625l-12.536-9.534-176.552-136.474a17.655 17.655 0 0 0-10.063-3.002zM279.48 332.09400000000005a17.655 17.655 0 0 0-9.533 32.485l57.555 37.076a17.655 17.655 0 0 0 18.715-30.014l-57.38-36.193a17.655 17.655 0 0 0-9.357-3.354z"  horiz-adv-x="1129" />

    
    <glyph glyph-name="analysis" unicode="&#58904;" d="M260.46 228.2c-24.78 42.77-38.96 92.44-38.96 145.42H512L260.46 228.2zM167.24 182.24L512 373.62l102.06-380.91c-32.55-8.7-66.77-13.34-102.06-13.34-148.28 0.01-277.45 81.87-344.76 202.87z m704.22 398.92C906.78 520.11 927 449.23 927 373.62c0-37.15-4.88-73.17-14.04-107.44L512 373.62l359.46 207.54zM97 373.62c0 229.2 185.8 415 415 415v-415H97zM512 705.62c122.81 0 230.04-66.68 287.47-165.81L512 373.62v332z m260.62-401.83C747.81 210.94 674.69 137.82 581.83 113L512 373.62l260.62-69.83zM408.25 373.62a103.75 103.75 0 1 1 207.5 0 103.75 103.75 0 1 1-207.5 0z"  horiz-adv-x="1024" />

    
    <glyph glyph-name="crcc12-white" unicode="&#58902;" d="M509.432 824C385 824 272.12 788.744 190.408 731.872 109.336 675.456 59.08 597.792 59.08 512.44c0-85.336 50.256-163 131.328-219.424C272.12 236.16 385 200.888 509.432 200.888c124.424 0 237.296 35.248 319 92.128 81.08 56.424 131.344 134.088 131.344 219.424 0 85.352-50.264 163.016-131.344 219.432C746.728 788.744 633.856 824 509.432 824zM0.008 19.616h38.72v16.984h55.76v-81.152h41.008v81.152h56.92v-14.168h42.128V130h-99.04v23.592c0 6.92 1.112 12.872 3.392 17.904 0.776 1.296 1.168 2.224 1.168 2.864 0 0.592-2.68 1.24-7.96 1.88h-38.728v-46.256H0.008v-110.368z m38.728 83.992h55.76v-41.504h-55.76v41.504z m153.688-41.496h-56.92v41.504h56.92v-41.504zM256.08-43.28h35.44v11.864h159.504v-10.024h36.528V164.496H256.08v-207.776z m194.928 183.064v-147.368H291.52V139.784h159.488z m-145.072-56.76v-22.88h45.416v-30.192h-52.08v-23.808h143.984v23.808h-21.032l16.6 9.168c-1.48 1.832-6.632 8.84-15.504 21.048h13.28v22.872h-49.816V103.2h54.256v22.88H301.488v-22.88h49.872v-20.16l-45.424-0.016z m86.376-32.016c5.92-6.72 11.432-13.752 16.584-21.072h-22.12v30.2h22.12l-16.584-9.128zM602.64 107.056h-57.504c1.512 2.528 3.344 5.76 5.56 9.576 1.472 3.864 2.928 7.072 4.392 9.64h55.296v24.984h-45.344c5.896 11.52 9.248 18.256 9.96 20.176-9.584 2.576-21 4.8-34.24 6.736-1.512 0.64-2.608 0.968-3.36 0.968-7.36-34-19.528-65.048-36.472-93.248 6.608-1.92 15.464-6.408 26.512-13.472l6.656 10.592h7.736v-21.168H506.44v-24.968h35.392v-31.736c0-3.832-3.688-8.016-11.048-12.48 7.36-19.88 12.128-30.76 14.344-32.696 0 0 4.424 2.248 13.296 6.728a3559.624 3559.624 0 0 0 59.688 32.688 103.44 103.44 0 0 0-5.52 25.968 3958.16 3958.16 0 0 1-33.168-16.376c1.464 0.648 0 0-4.432-1.92v29.824h32.088v24.968h-32.08v20.168h27.64v25.048z m22.128 53.8c-3.688-28.168-9.968-52.216-18.832-72.112 19.192-1.264 29.864-2.216 32.088-2.856a148.32 148.32 0 0 1 8.872 23.088h20.984v-24.024c0-4.512-0.376-7.72-1.128-9.64h-49.736v-25.928h46.424c-10.328-30.152-34.232-56.096-71.84-77.864 6.6-2.536 18.064-8.328 34.248-17.312 21.368 16.656 40.56 37.168 57.512 61.512 14-26.904 33.168-47.072 57.504-60.528 8.832 12.176 16.936 21.128 24.296 26.888-31.656 15.408-52.312 37.832-61.888 67.304h53.08v25.928h-55.296c0.768 1.92 1.096 5.128 1.096 9.64v23.04h45.344v25.968h-44.208v26.896c0 3.832 0.376 7.704 1.088 11.552 0.768 1.88 0.376 3.192-1.088 3.824-1.464 1.312-13.256 1.936-35.392 1.936v-44.208h-14.384a395.36 395.36 0 0 0 5.512 17.296l1.128 6.736-35.384 2.864zM862.68 138.64h39v-9.624h-51.264v-23.048h51.264v-10.56h-40.088v-22.104h40.088v-8.64h-42.328v-23.088h42.328v-8.6h-49.048v-24.024h49.048v-21.16c-28.2 0-50.136 5.128-65.736 15.376 9.656 20.504 14.096 51.232 13.36 92.224h-27.856c8.872 16.632 18.92 39.056 30.112 67.256H771.264v-25.952h33.432c-2.936-13.432-7.048-23.4-12.216-29.784-4.488-6.424-11.168-9.928-20.08-10.584v-25.896h41.232v-22.096a452.896 452.896 0 0 0-2.216-15.376c-3.016 2.528-7.424 12.144-13.376 28.816-16.36-3.848-26.408-5.784-30.112-5.784a271.664 271.664 0 0 1 27.872-53.784c-5.944-10.248-17.144-19.552-33.464-27.856 11.152-5.8 20.808-12.504 28.968-20.168 7.432 6.4 15.232 13.768 23.416 22.104 3 1.912 4.848 3.176 5.56 3.824 17.84-14.072 51.656-21.128 101.472-21.128h91.432a74.96 74.96 0 0 0 14.504 32.664c-25.264-2.568-55.76-3.848-91.44-3.848v21.168h65.8v24.024h-65.8v8.6h57.992v23.088h-57.992v8.64h57.992v32.664h24.504V130h-24.504v31.704h-57.992c0 4.504 0.768 8.32 2.232 11.52v2.904c-0.768 1.264-2.984 1.912-6.704 1.912h-30.128v-16.352h-39v-23.048h0.032z m73.584-9.624V138.64h22.312v-9.624h-22.312z m0-23.048h23.416v-10.56h-23.416v10.56zM76.76 517.744h39.176v-10.592H76.76v10.592z m826.592 0h39.184v-10.592h-39.184v10.592zM504.136 805.536h10.584v-183.832h-10.584V805.536z m0-506.408h10.584v-79.768h-10.584v79.768z m0 124.136h10.584v-57.096h-10.584v57.096zM625.192 303.488c-14.864-27.592-32.688-49.888-52.512-65.168-19.448-14.984-40.816-23.264-63.248-23.264-22.784 0-44.448 8.528-64.12 23.944-20.08 15.736-38.056 38.648-52.968 66.952l9.344 4.928c14.232-27.032 31.24-48.784 50.112-63.568 17.808-13.944 37.28-21.664 57.624-21.664 20.016 0 39.216 7.488 56.808 21.024 18.632 14.36 35.48 35.52 49.656 61.824l9.304-5.008zM330.744 250.456c15.336 16.168 40.848 29.832 72.768 39.288 30.568 9.088 67.128 14.368 106.304 14.368 39.168 0 75.728-5.28 106.32-14.368 31.904-9.472 57.416-23.136 72.76-39.288l-7.656-7.296c-14.072 14.832-37.944 27.504-68.088 36.464-29.6 8.784-65.152 13.912-103.336 13.912-38.192 0-73.728-5.144-103.328-13.912-30.152-8.944-54.024-21.616-68.088-36.464l-7.656 7.296zM509.432 810.176c120.264 0 229.504-33.2 308.728-86.72 79.84-53.96 129.36-128.6 129.36-211.016 0-82.4-49.504-157.048-129.36-211-79.216-53.52-188.472-86.72-308.728-86.72-120.264 0-229.504 33.184-308.736 86.736C120.84 355.392 71.344 430.04 71.344 512.44c0 82.416 49.496 157.056 129.344 211 79.232 53.544 188.48 86.736 308.744 86.736z m0-10.592c-118.112 0-225.256-32.488-302.824-84.912-76.96-52-124.664-123.576-124.664-202.232 0-78.648 47.704-150.224 124.664-202.224 77.568-52.424 184.712-84.912 302.824-84.912s225.264 32.496 302.816 84.912c76.96 52 124.672 123.56 124.672 202.224s-47.712 150.232-124.664 202.232c-77.56 52.424-184.72 84.912-302.824 84.912zM368.224 364.768a435.248 435.248 0 0 0-7.064 25.392 470.344 470.344 0 0 0-5.696 26.384l10.384 1.904c1.624-8.736 3.488-17.352 5.56-25.776 2.08-8.448 4.4-16.696 6.912-24.76l-10.096-3.144zM664.872 424.872a473.16 473.16 0 0 0-6.48-31.912 420.928 420.928 0 0 0-8.488-30.448l-10.096 3.168a418.52 418.52 0 0 1 8.264 29.704c2.456 10.2 4.568 20.608 6.36 31.2l10.44-1.712zM359.352 627.136c12.336 53.984 33.128 99.952 59.296 132.192 25.888 31.904 57.104 50.52 90.784 50.52 33 0 63.608-17.832 89.168-48.504 25.84-31.008 46.592-75.352 59.368-127.632l-10.256-2.496c-12.376 50.648-32.392 93.496-57.248 123.336-23.56 28.264-51.408 44.688-81.016 44.688-30.304 0-58.712-17.16-82.592-46.576-25.152-31.008-45.2-75.472-57.184-127.896l-10.32 2.368zM793.472 423.976c-19.112-61.368-57.56-114.328-108.16-151.656-49.344-36.408-110.2-57.944-175.896-57.944a294.92 294.92 0 0 0-127.696 28.936 300.016 300.016 0 0 0-103.36 81.752h-0.024a303.04 303.04 0 0 0-28.76 42.544 297.088 297.088 0 0 0-20.992 46.656l9.96 3.48a288.736 288.736 0 0 1 48.024-86.016h-0.016A289.208 289.208 0 0 1 386.28 252.88a284.296 284.296 0 0 1 123.144-27.92c63.384 0 122.056 20.776 169.624 55.856 48.8 36.016 85.888 87.112 104.328 146.312l10.096-3.152zM234 624.904a300.208 300.208 0 0 0 109.992 135.056 295.16 295.16 0 0 0 165.44 50.568 295.096 295.096 0 0 0 160.888-47.576 300.376 300.376 0 0 0 110.224-128.032l-9.64-4.352a289.888 289.888 0 0 1-106.336 123.536 284.576 284.576 0 0 1-155.144 45.84 284.504 284.504 0 0 1-159.52-48.768 289.536 289.536 0 0 1-106.096-130.248l-9.808 3.976zM690.4 776.832c-14.64-16.816-40.152-31.08-72.496-40.992-30.984-9.504-68.368-15.072-108.48-15.072-39.952 0-77.168 5.512-108.04 14.92-32.224 9.816-57.728 23.984-72.512 40.696l7.896 7c13.456-15.224 37.272-28.296 67.672-37.56 29.928-9.112 66.088-14.456 104.976-14.456 39.112 0 75.4 5.384 105.368 14.568 30.464 9.336 54.264 22.504 67.608 37.848l8.008-6.952zM163.24 340.6c46.008 15.168 100.296 27.368 160.208 35.68 57.624 7.984 120.4 12.392 185.976 12.392 65.72 0 128.648-4.416 186.36-12.456 60.016-8.344 114.376-20.584 160.408-35.824l-3.312-10.048c-45.504 15.048-99.216 27.168-158.536 35.4-57.152 7.944-119.552 12.32-184.912 12.32-65.208 0-127.496-4.36-184.528-12.272-59.224-8.2-112.88-20.264-158.344-35.248l-3.32 10.056zM856.112 684.904c-46.064-15.36-100.496-27.712-160.608-36.136-57.848-8.088-120.96-12.56-186.896-12.56-64.128 0-125.872 4.376-182.728 12.2-59.552 8.2-113.704 20.224-159.592 35l3.232 10.056c45.312-14.6 98.832-26.464 157.768-34.584 56.28-7.752 117.536-12.08 181.328-12.08 65.56 0 128.168 4.424 185.44 12.44 59.504 8.328 113.296 20.52 158.704 35.672l3.352-10.008zM322.688 327.168h6.944v3.736h10v-17.784h7.352v17.784h10.208v-3.128h7.552v23.552h-17.76v5.168c0 1.504 0.2 2.832 0.608 3.92 0.144 0.272 0.208 0.488 0.208 0.616s-0.48 0.28-1.424 0.416h-6.944v-10.12h-16.736l-0.008-24.16z m6.944 18.392h10v-9.112h-10v9.112z m27.56-9.088h-10.208v9.096h10.208v-9.096z m36.168 9.488h-10.616l1.024 2.064c0.272 0.832 0.536 1.52 0.816 2.088h10.208v5.376h-8.368c1.096 2.464 1.704 3.912 1.832 4.328a50.104 50.104 0 0 1-6.32 1.448 1.48 1.48 0 0 1-0.624 0.192 72.584 72.584 0 0 0-6.728-20.032c1.216-0.416 2.856-1.376 4.896-2.888l1.224 2.264h1.424v-4.536h-6.528v-5.352h6.528v-6.832c0-0.816-0.68-1.712-2.032-2.688 1.352-4.256 2.232-6.6 2.656-7.016 0 0 0.816 0.496 2.456 1.464 3.808 2.464 7.488 4.824 11.024 7.016a25.616 25.616 0 0 0-1.024 5.576c-1.224-0.712-3.264-1.856-6.12-3.504l-0.824-0.432v6.432h5.928v5.352h-5.928v4.336h5.104l-0.008 5.344z m4.088 11.568c-0.68-6.064-1.832-11.216-3.48-15.504 3.544-0.264 5.512-0.488 5.928-0.616 0.672 1.656 1.224 3.304 1.632 4.952h3.872v-5.168a7.24 7.24 0 0 0-0.208-2.064h-9.176v-5.576h8.576c-1.912-6.48-6.336-12.064-13.272-16.736 1.216-0.536 3.336-1.8 6.32-3.736a57.464 57.464 0 0 1 10.616 13.224c2.592-5.776 6.128-10.136 10.624-13 1.632 2.608 3.128 4.536 4.488 5.776-5.848 3.304-9.664 8.144-11.432 14.472h9.8v5.576h-10.208a7.312 7.312 0 0 1 0.2 2.064v4.952h8.368v5.576h-8.16v5.784c0 0.832 0.064 1.656 0.2 2.496 0.136 0.408 0.072 0.68-0.2 0.824-0.272 0.28-2.448 0.424-6.536 0.424v-9.504h-2.656c0.272 1.104 0.624 2.344 1.016 3.728l0.208 1.44-6.52 0.616z m33.112-20.856h19.808v-22.92h7.344v22.92h19.384v6.408h-19.384V354.24c0 1.92 0.2 3.64 0.608 5.168 0.136 0.416 0.136 0.68 0 0.832-0.144 0.264-0.48 0.472-1.016 0.608h-6.944v-17.768h-19.808l0.008-6.408z m97.824 9.496v6.816H489.16v-6.816h39.224z m17.384-10.744c-0.144-7.168-2.032-13.072-5.704-17.752 1.904-0.968 3.864-2.344 5.904-4.16 4.216 5.8 6.408 13.576 6.528 23.36h26.144v-13.016c0.272-3.296-1.032-4.688-3.872-4.144V334.4H554.76v-16.128h6.144v1.664h7.752v-1.456h5.312c0.688-1.376 1.16-3.168 1.44-5.36 4.496 0.144 7.344 0.816 8.568 2.064 1.36 1.112 2.04 3.504 2.04 7.216v19.84H552.52v2.688h30.416V359.6h-37.168v-24.176z m30.232 18.592v-3.704H552.52v3.704h23.48z m-15.112-24.784h7.552v-4.536h-7.552v4.536z m48.84 27.264a7.936 7.936 0 0 1 1.224 1.656 2.496 2.496 0 0 0 0.824 0.832c0.408 0.272 0.608 0.544 0.608 0.832-0.28 0.544-2.248 1.376-5.92 2.472-0.144 0-0.488-0.536-1.016-1.64-3.408-6.184-6.864-11.08-10.424-14.672l0.408-0.408c1.64-1.24 2.736-2.424 3.28-3.512 0.536 0.28 1.96 1.928 4.272 4.96v-15.288h6.328v1.232h7.36v-2.68h-19.824v-4.952h15.12c-4.08-3.168-9.328-5.376-15.712-6.616 2.032-1.8 3.592-3.504 4.68-5.168 6.68 2.784 11.912 5.592 15.736 8.496v-8.896h6.32v9.504c3.536-3.168 7.424-5.632 11.64-7.432 1.488-0.688 2.984-1.24 4.488-1.656 1.104 2.624 2.392 4.688 3.872 6.192-6.248 0.552-11.352 2.432-15.312 5.584h14.296v4.952h-18.984v2.672h16.752v4.552h-14.704v2.064h12.656v4.128h-12.656v1.872h12.656v4.328h-12.656v1.856h14.504v4.76h-13.88a7.632 7.632 0 0 1-0.192 1.24c-0.144 2.328-0.344 3.712-0.624 4.12 0.152 0.28-0.6 0.28-2.24 0-3.136-0.408-4.76-0.688-4.896-0.832 0.688-1.64 1.168-3.168 1.44-4.528h-9.408v-0.024z m-0.416-6.608v1.848h9.592v-1.848h-9.592z m9.592-6.2h-9.592v1.872h9.592v-1.872z m-9.592-4.128h9.592v-2.064h-9.592v2.064z m44.344-25.808h6.32v2.256h28.592v-2.496h6.728v45.672h-41.64v-45.432z m7.968 34.272v-5.352h9.584c-2.856-6.08-6.248-10.488-10.2-13.232 1.36-1.232 2.576-2.752 3.664-4.528l0.2-0.2a40.28 40.28 0 0 1 10.208 12.816v-8.888c0-0.952-0.208-1.504-0.624-1.648-0.264-0.152-1.488-0.208-3.656-0.208 0.816-1.504 1.36-3.384 1.624-5.576H659.96v32.64h15.12v-5.792h-13.464v-0.032z m27.144 5.792v-32.64H677.32c3.136 0.552 4.56 2.28 4.288 5.168v16.336h5.512v5.352h-5.512v5.8h7.16v-0.016zM364.424 615.92l-49.32-138.512h70.352l13.056 39.168 33.36-39.168 47.872 0.72 8.704 25.384-26.112-0.72-15.96 17.408h50.04l33.352 89.2-165.344 6.52z m56.568-33.36l56.576-1.44-8.704-24.664h-55.12l7.248 26.104z m124.032 26.112l-47.88-129.832 169.712 1.456 15.224 39.168-97.176-0.72 20.304 52.944h97.184l13.784 31.904-171.152 5.08z m188.56-7.256l-45.696-121.84 184.208 0.72 14.504 39.168-107.344-0.72 19.568 49.312 104.456-0.72 9.424 29.736-179.12 4.344z m-405.424-44.96h-48.592l-39.168-99.368 98.64 2.168 528.712 7.992-9.432-26.832-458.088-11.176-278.504-6.024c-23.68 13.32-29.704 30.76-16.64 53.76 46.192 72.6 100.896 129.208 176.088 140.64h70.072l-23.088-61.16z m203.472-232.928v6.832h-45.728v-6.832h45.728z"  horiz-adv-x="1027" />

    
    <glyph glyph-name="crcc-white" unicode="&#58903;" d="M506.712 824.312c-125.112 0-238.616-34.84-320.776-91.024-81.52-55.744-132.056-132.472-132.056-216.8S104.416 355.44 185.936 299.68c82.168-56.176 195.664-91.024 320.776-91.024s238.608 34.84 320.768 91.024c81.504 55.76 132.064 132.48 132.064 216.808s-50.536 161.056-132.064 216.8C745.32 789.472 631.824 824.312 506.712 824.312zM0 26.288h38.512v16.88h55.472v-80.736h40.792v80.736h56.64v-14.104h41.896V136.096H134.776v23.472c0 6.888 1.112 12.832 3.384 17.832 0.776 1.28 1.16 2.2 1.16 2.84 0 0.592-2.656 1.232-7.92 1.872h-38.512v-46.016H0v-109.808z m38.512 83.544h55.472v-41.296H38.512v41.296z m152.896-41.304h-56.64v41.28h56.64v-41.28zM254.704-36.304h35.264v11.824h158.664v-10h36.336V170.408H254.704v-206.712z m193.92 182.12v-146.592H289.968V145.816h158.656z m-144.32-56.472v-22.768h45.176v-30.048h-51.808v-23.688h143.24v23.688H420l16.504 9.104c-1.456 1.832-6.584 8.832-15.416 20.944h13.208v22.768h-49.552v20.056h53.968v22.776H299.88v-22.776h49.6v-20.056h-45.176z m85.928-31.848a248.88 248.88 0 0 0 16.504-20.952h-22v30.04h22l-16.504-9.088zM599.424 113.28h-57.208c1.504 2.512 3.336 5.704 5.536 9.528 1.464 3.832 2.904 7.016 4.376 9.592h55v24.832h-45.112c5.856 11.472 9.192 18.168 9.896 20.096-9.52 2.544-20.88 4.76-34.072 6.672-1.504 0.664-2.584 0.984-3.336 0.984-7.32-33.816-19.424-64.696-36.272-92.768 6.568-1.912 15.392-6.376 26.376-13.392l6.616 10.528h7.688v-21.056h-35.184v-24.832h35.184v-31.576c0-3.816-3.656-7.96-10.976-12.424 7.32-19.784 12.064-30.592 14.264-32.504l13.232 6.696a3660.904 3660.904 0 0 0 59.376 32.512 104.08 104.08 0 0 0-5.488 25.824c-6.64-3.208-17.608-8.6-33.016-16.28 1.472 0.664 0 0-4.408-1.912v29.672h31.92v24.84h-31.92v20.064h27.504V113.28h0.024z m22.016 53.52c-3.656-28.032-9.896-51.92-18.736-71.72 19.112-1.264 29.72-2.2 31.912-2.84 3.664 7.672 6.616 15.296 8.824 22.968h20.888v-23.904c0-4.488-0.376-7.672-1.128-9.584h-49.472v-25.792h46.168c-10.28-29.984-34.072-55.816-71.488-77.472 6.56-2.536 17.984-8.296 34.08-17.216 21.248 16.56 40.368 36.952 57.216 61.184 13.92-26.768 32.984-46.832 57.192-60.2 8.792 12.12 16.848 21 24.168 26.752-31.496 15.304-52.048 37.616-61.568 66.952h52.808v25.792h-55c0.752 1.912 1.08 5.104 1.08 9.584v22.92h45.104v25.832H699.52V166.8c0 3.84 0.376 7.672 1.08 11.512 0.752 1.872 0.376 3.168-1.08 3.784-1.456 1.312-13.184 1.912-35.184 1.912v-43.968h-14.312c1.44 5.104 3.328 10.848 5.496 17.208 0.744 4.456 1.136 6.696 1.136 6.696l-35.216 2.856zM858.08 144.712h38.816v-9.584h-51.016v-22.904h51.016v-10.52h-39.888v-21.976h39.888v-8.608h-42.128v-22.952h42.128v-8.56h-48.8v-23.888h48.8v-21.048c-28.064 0-49.872 5.112-65.408 15.296 9.608 20.392 14.016 50.976 13.296 91.752h-27.72c8.832 16.552 18.832 38.84 29.936 66.912h-79.872v-25.824h33.264c-2.936-13.376-7-23.264-12.168-29.64-4.448-6.36-11.12-9.864-19.968-10.512v-25.768h41.024v-21.984a443.008 443.008 0 0 0-2.216-15.296c-2.984 2.528-7.376 12.08-13.296 28.672-16.272-3.84-26.256-5.768-29.944-5.768a269.472 269.472 0 0 1 27.736-53.496c-5.912-10.192-17.048-19.464-33.28-27.736 11.088-5.76 20.696-12.432 28.832-20.072a393.144 393.144 0 0 1 23.28 21.984c2.984 1.92 4.832 3.168 5.528 3.792 17.752-13.976 51.392-20.992 100.928-20.992h90.952a74.52 74.52 0 0 0 14.44 32.504c-25.136-2.568-55.464-3.832-90.952-3.832v21.048h65.448v23.888h-65.448v8.552h57.696v22.968h-57.696v8.6h57.696v32.504h24.36v23.888h-24.36v31.504h-57.696c0 4.496 0.76 8.272 2.224 11.464v2.896c-0.768 1.256-2.984 1.912-6.672 1.912h-29.952v-16.272h-38.816v-22.904z m73.224-9.584v9.584h22.184v-9.584h-22.184z m0-22.928h23.272v-10.512h-23.272v10.512zM326.4 560.264h-48.336l-38.96-98.84 98.112 2.168 525.936 7.936-9.384-26.688-455.672-11.104-277.032-6.008c-23.56 13.248-29.552 30.6-16.552 53.48 45.952 72.224 100.368 128.544 175.16 139.896h69.704l-22.976-60.84zM729.696 605l-45.464-121.216 183.248 0.728 14.44 38.952-106.792-0.72 19.488 49.072 103.888-0.728 9.384 29.584-178.192 4.328zM542.096 612.208l-47.6-129.136 168.824 1.44 15.144 38.952-96.656-0.72 20.184 52.672h96.688l13.704 31.752-170.288 5.04zM362.472 619.424l-49.064-137.808h69.984l12.992 38.976 33.184-38.976 47.616 0.728 8.656 25.256-25.976-0.728-15.864 17.32h49.776l33.184 88.744-164.488 6.488z m56.272-33.184l56.272-1.456-8.656-24.528h-54.832l7.216 25.984zM506.712 812.656c119.64 0 228.296-33.016 307.12-86.272 79.424-53.664 128.656-127.92 128.656-209.896 0-81.968-49.232-156.232-128.656-209.896-78.832-53.248-187.488-86.272-307.12-86.272s-228.312 33.024-307.12 86.272c-79.416 53.664-128.664 127.92-128.664 209.896 0 81.984 49.24 156.232 128.664 209.896 78.816 53.256 187.496 86.272 307.12 86.272z m0-10.552c-117.496 0-224.072-32.32-301.232-84.464C128.928 665.92 81.464 594.72 81.464 516.48s47.464-149.44 124.016-201.16c77.16-52.152 183.736-84.48 301.232-84.48 117.488 0 224.056 32.328 301.216 84.48 76.56 51.72 124.016 122.912 124.016 201.16 0 78.248-47.456 149.44-124.016 201.168-77.16 52.144-183.728 84.456-301.216 84.456zM357.424 630.584c12.264 53.688 32.944 99.416 58.984 131.504 25.752 31.736 56.808 50.24 90.312 50.24 32.824 0 63.272-17.728 88.688-48.256 25.704-30.832 46.36-74.944 59.048-126.952l-10.2-2.472c-12.304 50.376-32.216 92.992-56.952 122.68-23.424 28.12-51.112 44.464-80.576 44.464-30.144 0-58.408-17.088-82.16-46.336-25.024-30.832-44.976-75.072-56.888-127.216l-10.256 2.344zM789.264 428.472c-19.008-61.032-57.24-113.704-107.568-150.848-49.08-36.2-109.624-57.64-174.976-57.64a293.712 293.712 0 0 0-170.84 54.648c-49.64 35.336-88.024 85.6-108.52 144.192l9.928 3.464c19.768-56.504 56.8-105.008 104.696-139.104a283.136 283.136 0 0 1 164.736-52.656c63.048 0 121.424 20.64 168.704 55.536C723.976 321.888 760.88 372.712 779.232 431.6l10.032-3.128zM232.728 628.36a298.696 298.696 0 0 0 109.408 134.336 293.568 293.568 0 0 0 164.576 50.304c58.864 0 113.84-17.408 160.04-47.336a298.712 298.712 0 0 0 109.656-127.352l-9.6-4.328a288.264 288.264 0 0 1-105.776 122.872 283.016 283.016 0 0 1-154.328 45.6 283.104 283.104 0 0 1-158.68-48.488 288.032 288.032 0 0 1-105.536-129.552l-9.76 3.944zM686.72 779.48c-14.552-16.72-39.936-30.912-72.112-40.776-30.832-9.456-68.016-14.992-107.904-14.992-39.752 0-76.776 5.48-107.48 14.84-32.056 9.768-57.424 23.856-72.128 40.488l7.864 6.96c13.376-15.144 37.064-28.152 67.312-37.36 29.768-9.072 65.736-14.376 104.432-14.376 38.896 0 75.008 5.344 104.832 14.48 30.288 9.28 53.952 22.4 67.224 37.648l7.96-6.912zM328.976 255.856c15.248 16.088 40.624 29.672 72.376 39.112 30.408 9.016 66.776 14.288 105.752 14.288 38.968 0 75.336-5.272 105.752-14.288 31.744-9.44 57.12-23.024 72.368-39.112l-7.616-7.24c-13.992 14.752-37.744 27.36-67.72 36.24-29.464 8.752-64.808 13.848-102.784 13.848-37.992 0-73.336-5.112-102.784-13.848-29.992-8.88-53.736-21.504-67.712-36.24l-7.632 7.24zM162.36 345.544c45.76 15.088 99.752 27.216 159.352 35.504 57.32 7.936 119.776 12.32 185.008 12.32 65.376 0 127.96-4.392 185.376-12.384 59.704-8.304 113.776-20.488 159.56-35.632l-3.296-10c-45.264 14.968-98.704 27.008-157.72 35.208-56.832 7.888-118.92 12.256-183.928 12.256-64.864 0-126.824-4.336-183.568-12.208-58.904-8.168-112.272-20.16-157.496-35.064l-3.288 10zM164.472 686.728l-1.68 0.552 3.264 10 1.672-0.552-3.256-10zM169.528 696.152l0.016-0.016c-0.008 0-0.016 0-0.016 0.016zM851.576 688.032c-45.808-15.288-99.952-27.568-159.768-35.936-57.552-8.056-120.32-12.504-185.92-12.504-63.784 0-125.2 4.352-181.768 12.136-59.24 8.168-113.104 20.12-158.744 34.816l3.208 10.008c45.064-14.512 98.32-26.328 156.944-34.392 55.976-7.712 116.912-12.016 180.352-12.016 65.216 0 127.504 4.4 184.472 12.368 59.184 8.28 112.704 20.408 157.872 35.488l3.352-9.968zM327.104 253.928l0.92 1.04h-0.016c0.08 0.112 0.232 0.232 0.96 1.016l7.616-7.24c-0.136-0.152-0.128-0.168-0.8-0.896h-0.024c-0.504-0.528-0.736-0.8-0.8-0.864l-7.856 6.944zM364.344 420.376c12.152-53.184 34.04-102.56 61.12-137.776 24.736-32.184 53.664-52.384 83.112-52.384 28.416 0 57.376 21.376 82.608 54.232 28.256 36.848 51.568 87.888 64.256 139.88l10.2-2.48c-13.024-53.384-37-105.84-66.112-143.784-27.16-35.408-58.96-58.4-90.968-58.4-32.984 0-64.744 21.784-91.424 56.488-28 36.408-50.576 87.248-63.056 141.856l10.264 2.368zM511.848 808.096v-182.224h-10.552V808.096h10.552zM511.848 427.056v-201.64h-10.552V427.056h10.552zM76.872 521.752h39.144v-10.536H76.872v10.536zM899.992 521.752h39.144v-10.536h-39.144v10.536z"  horiz-adv-x="1024" />

    
    <glyph glyph-name="crcc12" unicode="&#58900;" d="M0.008 13.624h38.64v16.944h55.648v-80.984h40.92v80.984h56.808v-14.144h42.032V123.776H135.216v23.544c0 6.912 1.112 12.848 3.384 17.872 0.776 1.296 1.168 2.216 1.168 2.856 0 0.592-2.672 1.24-7.944 1.872h-38.648v-46.16H0.008v-110.136z m38.64 83.816h55.648v-41.424H38.648V97.44z m153.368-41.424h-56.808V97.44h56.808v-41.424zM255.536-49.144h35.368v11.832h159.16v-10h36.456V158.192H255.536v-207.336z m194.528 182.672v-147.056H290.904V133.528h159.16z m-144.768-56.64v-22.832h45.32v-30.144h-51.968v-23.76h143.68v23.76h-20.984l16.56 9.136c-1.48 1.824-6.616 8.832-15.472 21.008h13.248v22.832h-49.704v20.12h54.136V119.84H300.848v-22.832h49.768v-20.12h-45.32z m86.192-31.944a244.976 244.976 0 0 0 16.544-21.024h-22.064v30.144h22.064l-16.544-9.12zM601.368 100.872h-57.384c1.504 2.528 3.336 5.736 5.544 9.56 1.464 3.848 2.928 7.048 4.384 9.616h55.168v24.928h-45.24c5.888 11.504 9.232 18.216 9.944 20.136-9.576 2.584-20.96 4.8-34.184 6.72-1.504 0.648-2.592 0.984-3.344 0.984-7.344-33.928-19.496-64.912-36.384-93.072 6.584-1.912 15.424-6.376 26.464-13.424l6.632 10.56h7.72v-21.128h-35.312v-24.912h35.312v-31.68c0-3.824-3.68-7.992-11.016-12.44 7.336-19.848 12.096-30.696 14.312-32.624 0 0 4.416 2.248 13.272 6.712a3662.448 3662.448 0 0 0 59.56 32.616 103.648 103.648 0 0 0-5.52 25.912c-6.64-3.232-17.648-8.64-33.096-16.336 1.456 0.648 0 0-4.416-1.92v29.76h32v24.912h-32v20.136h27.576v24.984z m22.088 53.688c-3.672-28.112-9.936-52.104-18.8-71.952 19.168-1.264 29.808-2.208 32.016-2.856 3.68 7.688 6.648 15.344 8.856 23.04h20.944v-23.968c0-4.512-0.376-7.704-1.128-9.616H615.72v-25.872h46.328c-10.304-30.088-34.168-55.984-71.696-77.712 6.592-2.536 18.032-8.304 34.176-17.272 21.32 16.608 40.488 37.08 57.392 61.392 13.984-26.856 33.104-46.976 57.392-60.416 8.8 12.168 16.896 21.08 24.24 26.84-31.584 15.368-52.2 37.744-61.768 67.168h52.96v25.872H699.56c0.776 1.912 1.096 5.104 1.096 9.616v22.992h45.248v25.912h-44.12V154.56c0 3.84 0.376 7.696 1.08 11.544 0.76 1.872 0.384 3.184-1.08 3.808-1.456 1.312-13.232 1.92-35.312 1.92v-44.112H652.12c1.464 5.112 3.352 10.872 5.512 17.256l1.12 6.72-35.296 2.864zM860.864 132.4h38.92v-9.6h-51.168v-23.008h51.168v-10.536h-40v-22.056h40v-8.624h-42.24v-23.04h42.24v-8.584H850.84v-23.968h48.944v-21.112c-28.152 0-50.024 5.12-65.6 15.344 9.64 20.456 14.056 51.136 13.336 92.04h-27.808c8.856 16.6 18.88 38.976 30.048 67.12H769.64v-25.896h33.352c-2.928-13.4-7.024-23.352-12.184-29.72-4.48-6.4-11.16-9.912-20.048-10.56v-25.848h41.168v-22.04c-0.76-5.768-1.464-10.88-2.224-15.352-3 2.528-7.4 12.112-13.352 28.76-16.312-3.848-26.336-5.768-30.04-5.768a270.792 270.792 0 0 1 27.824-53.672c-5.928-10.224-17.096-19.512-33.384-27.808 11.128-5.776 20.76-12.48 28.912-20.136a383.032 383.032 0 0 1 23.352 22.056c3 1.912 4.848 3.176 5.552 3.808 17.816-14.032 51.552-21.08 101.264-21.08h91.216a74.616 74.616 0 0 0 14.496 32.6c-25.208-2.568-55.64-3.84-91.24-3.84v21.112h65.656v23.968h-65.656v8.584h57.864v23.04h-57.864v8.624h57.864v32.592h24.456V123.76h-24.456v31.632h-57.864c0 4.496 0.768 8.304 2.232 11.504v2.896c-0.768 1.272-2.992 1.92-6.696 1.92h-30.056v-16.32h-38.92v-22.992z m73.432-9.6v9.6h22.256v-9.6h-22.256z m0-23.008h23.36v-10.536h-23.36v10.536zM76.6 510.704h39.096v-10.576H76.6v10.576z m824.848 0h39.104v-10.576h-39.104v10.576zM503.072 797.896h10.568v-183.448h-10.568V797.896z m0-505.36h10.568v-79.6h-10.568v79.6z m0 123.888h10.568v-56.96h-10.568v56.96zM623.88 296.88c-14.832-27.528-32.608-49.784-52.408-65.024-19.4-14.952-40.72-23.216-63.12-23.216-22.728 0-44.344 8.512-63.984 23.896-20.032 15.696-37.976 38.568-52.848 66.816l9.328 4.92c14.2-26.968 31.176-48.688 50.008-63.448 17.768-13.912 37.2-21.616 57.504-21.616 19.984 0 39.144 7.472 56.688 20.984 18.592 14.328 35.408 35.448 49.552 61.68l9.28-4.992zM330.048 243.968c15.304 16.128 40.76 29.768 72.608 39.208 30.504 9.064 66.992 14.336 106.08 14.336 39.08 0 75.576-5.272 106.08-14.336 31.84-9.448 57.296-23.088 72.608-39.208l-7.64-7.272c-14.04 14.808-37.856 27.448-67.944 36.376-29.536 8.768-65 13.88-103.104 13.88-38.112 0-73.576-5.12-103.104-13.88-30.088-8.928-53.912-21.568-67.944-36.376l-7.64 7.272zM508.352 802.52c120.008 0 229.032-33.128 308.096-86.536 79.672-53.84 129.072-128.336 129.072-210.576 0-82.232-49.4-156.712-129.072-210.56-79.064-53.424-188.088-86.536-308.096-86.536s-229.024 33.12-308.088 86.544c-79.68 53.832-129.072 128.32-129.072 210.552 0 82.24 49.392 156.728 129.072 210.56 79.064 53.424 188.08 86.552 308.088 86.552z m0-10.568c-117.856 0-224.784-32.416-302.184-84.728-76.8-51.896-124.408-123.32-124.408-201.816 0-78.48 47.608-149.912 124.408-201.8 77.4-52.312 184.328-84.728 302.184-84.728s224.784 32.416 302.176 84.728c76.808 51.888 124.416 123.304 124.416 201.8s-47.608 149.92-124.408 201.816c-77.4 52.304-184.32 84.728-302.184 84.728zM367.448 358.048a428.848 428.848 0 0 0-7.048 25.336 459.912 459.912 0 0 0-5.68 26.328l10.368 1.896a428.936 428.936 0 0 1 12.44-50.432l-10.08-3.128zM663.472 418.024a472.088 472.088 0 0 0-6.456-31.84 428.672 428.672 0 0 0-8.464-30.384l-10.072 3.168c3.04 9.552 5.808 19.456 8.248 29.648 2.44 10.168 4.56 20.56 6.336 31.136l10.408-1.728zM358.592 619.864c12.304 53.864 33.056 99.736 59.168 131.912 25.832 31.84 56.976 50.416 90.592 50.416 32.928 0 63.48-17.8 88.976-48.4 25.792-30.944 46.504-75.192 59.24-127.36l-10.232-2.488c-12.352 50.536-32.328 93.296-57.144 123.08-23.504 28.208-51.288 44.6-80.84 44.6-30.24 0-58.592-17.128-82.416-46.48-25.104-30.944-45.104-75.312-57.064-127.624l-10.28 2.344zM791.808 417.128c-19.072-61.232-57.448-114.08-107.92-151.328-49.232-36.336-109.968-57.832-175.528-57.832a294.344 294.344 0 0 0-127.432 28.88 299.432 299.432 0 0 0-103.144 81.568h-0.016a301.376 301.376 0 0 0-28.696 42.464 297.264 297.264 0 0 0-20.952 46.552l9.944 3.472a285.976 285.976 0 0 1 20.216-44.896 288.648 288.648 0 0 1 27.704-40.936h-0.016a288.936 288.936 0 0 1 99.512-78.688 283.72 283.72 0 0 1 122.88-27.864 284.224 284.224 0 0 1 169.256 55.744c48.704 35.944 85.72 86.92 104.128 146.008l10.064-3.144zM233.504 617.64a299.6 299.6 0 0 0 109.76 134.776 294.584 294.584 0 0 0 165.088 50.456 294.456 294.456 0 0 0 160.552-47.472 299.704 299.704 0 0 0 109.992-127.768l-9.616-4.336A289.144 289.144 0 0 1 663.16 746.568a283.888 283.888 0 0 1-154.816 45.744 283.912 283.912 0 0 1-159.184-48.664 288.872 288.872 0 0 1-105.872-129.976l-9.784 3.968zM688.944 769.248c-14.608-16.776-40.064-31.008-72.336-40.904-30.92-9.48-68.224-15.04-108.248-15.04-39.864 0-77.008 5.504-107.816 14.888-32.16 9.8-57.608 23.936-72.36 40.616l7.88 6.984c13.432-15.184 37.192-28.232 67.528-37.48 29.872-9.096 65.952-14.432 104.76-14.432 39.032 0 75.24 5.376 105.16 14.536 30.392 9.32 54.152 22.456 67.464 37.768l7.968-6.936zM162.896 333.928c45.92 15.144 100.088 27.312 159.872 35.6 57.504 7.976 120.152 12.368 185.584 12.368 65.584 0 128.376-4.408 185.976-12.424 59.888-8.336 114.128-20.544 160.064-35.736l-3.304-10.032c-45.408 15.016-99.008 27.096-158.2 35.32-57.032 7.928-119.32 12.296-184.528 12.296-65.072 0-127.224-4.352-184.144-12.24-59.104-8.192-112.64-20.232-158.016-35.184l-3.304 10.032zM854.312 677.504C808.36 662.184 754.04 649.856 694.04 641.456c-57.728-8.072-120.704-12.536-186.504-12.536-63.992 0-125.6 4.368-182.344 12.168-59.432 8.184-113.464 20.176-159.256 34.928l3.224 10.032c45.208-14.568 98.624-26.408 157.44-34.504 56.16-7.736 117.288-12.056 180.936-12.056 65.424 0 127.904 4.408 185.056 12.408 59.376 8.312 113.056 20.48 158.368 35.6l3.352-9.992zM322.008 320.52h6.928v3.728h9.976v-17.736h7.336v17.736H356.44v-3.12h7.536V344.64h-17.728v5.16c0 1.504 0.2 2.824 0.608 3.912 0.144 0.272 0.208 0.48 0.208 0.616s-0.48 0.28-1.424 0.416h-6.936v-10.104h-16.696v-24.12z m6.928 18.36h9.976v-9.08h-9.976V338.88z m27.504-9.072h-10.184V338.88H356.44v-9.072z m36.096 9.472h-10.592l1.024 2.056c0.272 0.832 0.536 1.52 0.808 2.08h10.184v5.36h-8.352a74.72 74.72 0 0 1 1.832 4.328 50.4 50.4 0 0 1-6.312 1.44 1.52 1.52 0 0 1-0.624 0.2 72.296 72.296 0 0 0-6.712-19.992c1.216-0.416 2.848-1.376 4.888-2.888l1.216 2.264h1.424v-4.536h-6.52v-5.336h6.52v-6.824c0-0.816-0.68-1.712-2.032-2.68 1.352-4.256 2.232-6.592 2.648-7.008l2.448 1.456c3.8 2.456 7.472 4.808 11 7a25.616 25.616 0 0 0-1.024 5.576c-1.224-0.712-3.256-1.864-6.104-3.504l-0.816-0.424v6.408h5.912v5.336h-5.912v4.328h5.096v5.36z m4.072 11.544c-0.68-6.04-1.832-11.192-3.472-15.456 3.544-0.272 5.504-0.48 5.92-0.616 0.672 1.656 1.224 3.296 1.632 4.944h3.872v-5.16a6.96 6.96 0 0 0-0.216-2.064h-9.16v-5.552h8.552c-1.904-6.464-6.32-12.04-13.24-16.712 1.216-0.528 3.328-1.784 6.312-3.712a57.4 57.4 0 0 1 10.592 13.192c2.584-5.76 6.112-10.104 10.6-12.976 1.624 2.608 3.12 4.528 4.48 5.768-5.84 3.304-9.648 8.12-11.408 14.44h9.776v5.56h-10.184a7.392 7.392 0 0 1 0.2 2.064v4.944h8.352v5.568h-8.144v5.768c0 0.832 0.064 1.656 0.2 2.488 0.136 0.408 0.072 0.68-0.2 0.824-0.272 0.272-2.44 0.416-6.512 0.416v-9.488h-2.656c0.272 1.096 0.624 2.344 1.016 3.72l0.208 1.44-6.52 0.6z m33.048-20.816h19.76v-22.872h7.336v22.872h19.344v6.4h-19.344v11.12c0 1.928 0.2 3.648 0.608 5.168 0.136 0.416 0.136 0.68 0 0.824-0.144 0.264-0.48 0.48-1.016 0.616h-6.92v-17.72h-19.76v-6.408z m97.616 9.472v6.808H488.12v-6.808h39.152z m17.352-10.712c-0.136-7.152-2.032-13.048-5.696-17.72 1.904-0.968 3.864-2.336 5.904-4.136 4.2 5.776 6.384 13.544 6.52 23.304h26.08v-12.992c0.264-3.288-1.04-4.68-3.88-4.128v14.64h-19.968v-16.096h6.12v1.664h7.736v-1.44h5.304c0.68-1.384 1.16-3.168 1.44-5.36 4.472 0.144 7.312 0.816 8.544 2.056 1.352 1.112 2.032 3.504 2.032 7.216v19.784h-33.4v2.688h30.352V352.88h-37.088v-24.112z m30.16 18.552v-3.696h-23.424v3.696h23.424z m-15.08-24.736h7.536v-4.528h-7.536v4.528z m48.728 27.216a7.944 7.944 0 0 1 1.232 1.656 2.448 2.448 0 0 0 0.816 0.824c0.4 0.272 0.608 0.552 0.608 0.832-0.272 0.544-2.24 1.368-5.904 2.464-0.144 0-0.488-0.536-1.024-1.648-3.392-6.168-6.848-11.056-10.392-14.632l0.408-0.4c1.632-1.24 2.72-2.424 3.264-3.512 0.544 0.28 1.968 1.92 4.272 4.952v-15.264h6.312v1.232h7.344v-2.672h-19.776v-4.944h15.088c-4.08-3.16-9.312-5.36-15.68-6.6 2.024-1.784 3.584-3.504 4.672-5.16 6.656 2.768 11.88 5.568 15.696 8.464v-8.872h6.304V316c3.536-3.152 7.408-5.624 11.616-7.408 1.496-0.696 2.984-1.24 4.488-1.656 1.088 2.616 2.368 4.672 3.856 6.184-6.24 0.552-11.328 2.416-15.28 5.568h14.272v4.944h-18.952v2.672h16.712v4.544H623.72v2.064h12.632v4.112H623.72v1.856h12.632v4.32H623.72v1.848h14.464v4.744h-13.848a6.8 6.8 0 0 1-0.2 1.24c-0.136 2.328-0.336 3.704-0.616 4.112 0.144 0.288-0.608 0.288-2.24 0-3.12-0.408-4.752-0.68-4.888-0.824 0.68-1.64 1.16-3.16 1.432-4.528h-9.392z m-0.408-6.6v1.848h9.576v-1.848h-9.576z m9.584-6.192h-9.576v1.872h9.576v-1.872z m-9.584-4.112h9.576v-2.064h-9.576v2.064z m44.248-25.76h6.312v2.256h28.528v-2.48h6.72V352.48h-41.56v-45.344z m7.96 34.2v-5.344h9.56c-2.848-6.056-6.232-10.448-10.168-13.192 1.352-1.248 2.568-2.752 3.656-4.528l0.2-0.208a40.624 40.624 0 0 1 10.192 12.784v-8.872c0-0.952-0.216-1.504-0.624-1.64-0.272-0.144-1.488-0.208-3.656-0.208 0.816-1.504 1.36-3.376 1.624-5.568h-12.432v32.56h15.088v-5.784h-13.44z m27.088 5.784v-32.576h-11.416c3.128 0.552 4.544 2.272 4.272 5.16V336h5.504v5.344h-5.504v5.776h7.144zM363.656 608.672L314.44 470.448h70.2l13.024 39.08 33.288-39.08 47.768 0.72 8.688 25.336-26.056-0.72-15.92 17.368h49.944l33.288 89.016-165.008 6.504z m56.448-33.296l56.456-1.44-8.68-24.608h-55l7.224 26.048z m123.768 26.064l-47.768-129.56 169.352 1.448 15.192 39.08-96.976-0.72 20.264 52.832H700.92l13.752 31.84-170.8 5.08z m188.168-7.24l-45.6-121.592 183.832 0.72 14.48 39.08-107.128-0.72 19.544 49.216 104.224-0.72 9.4 29.672-178.752 4.344z m-404.576-44.864h-48.496l-39.08-99.168 98.432 2.168 527.6 7.976-9.4-26.784-457.136-11.152-277.92-6.016c-23.632 13.296-29.64 30.688-16.608 53.648 46.096 72.448 100.688 128.936 175.72 140.344h69.928l-23.04-61.016z m203.048-232.432v6.808h-45.632v-6.808h45.632z"  horiz-adv-x="1025" />

    
    <glyph glyph-name="crcc" unicode="&#58901;" d="M2.952 18.352h38.552v16.912h55.528v-80.816h40.832v80.816h56.704v-14.112h41.936v107.12h-98.64v23.504c0 6.888 1.12 12.832 3.392 17.832 0.776 1.288 1.16 2.208 1.16 2.848 0 0.6-2.656 1.232-7.928 1.88h-38.552v-46.072H2.952v-109.912z m38.552 83.624h55.528v-41.336H41.504v41.336z m153.064-41.336h-56.704v41.336h56.704v-41.336zM257.92-44.296h35.296v11.824h158.832v-10h36.384V162.616H257.92v-206.912z m194.128 182.304v-146.76H293.216V138.008h158.832z m-144.48-56.52v-22.8h45.224v-30.064h-51.856v-23.728h143.392v23.728h-20.944l16.52 9.112c-1.464 1.816-6.6 8.824-15.44 20.952h13.224v22.8H388.08v20.072h54.024v22.8H303.152v-22.8H352.8v-20.072h-45.232z m86.032-31.896a249.648 249.648 0 0 0 16.52-20.968h-22.024v30.064h22.024l-16.52-9.096zM603.016 105.44h-57.272c1.504 2.52 3.336 5.712 5.544 9.56 1.456 3.832 2.904 7.008 4.376 9.584h55.056v24.872h-45.144c5.856 11.48 9.192 18.168 9.896 20.104-9.52 2.56-20.904 4.768-34.104 6.68-1.504 0.664-2.576 0.984-3.344 0.984-7.32-33.848-19.44-64.776-36.312-92.864 6.576-1.912 15.416-6.36 26.416-13.4l6.624 10.536h7.696v-21.08h-35.232v-24.864h35.232v-31.608c0-3.808-3.656-7.968-10.992-12.424 7.336-19.808 12.072-30.632 14.28-32.544 0 0 4.416 2.248 13.24 6.704a3675.8 3675.8 0 0 0 59.448 32.552 103.856 103.856 0 0 0-5.504 25.84 4496.64 4496.64 0 0 1-33.04-16.296c1.464 0.656 0 0-4.416-1.912v29.688h31.952v24.864h-31.952v20.096h27.536V105.44z m22.04 53.584c-3.672-28.072-9.92-51.992-18.752-71.816 19.12-1.256 29.736-2.2 31.944-2.848 3.664 7.688 6.632 15.32 8.832 23h20.904v-23.936c0-4.496-0.384-7.672-1.128-9.584h-49.52V48h46.232c-10.288-30.008-34.112-55.848-71.552-77.536 6.568-2.536 17.992-8.296 34.112-17.224 21.28 16.568 40.4 36.984 57.272 61.24 13.952-26.784 33.024-46.88 57.256-60.272 8.8 12.136 16.88 21.032 24.2 26.792-31.52 15.32-52.112 37.648-61.632 67.008h52.848v25.832h-55.072c0.76 1.912 1.08 5.096 1.08 9.584v22.952h45.16v25.856h-44.016v26.792c0 3.832 0.376 7.664 1.072 11.504 0.752 1.88 0.376 3.192-1.072 3.8-1.464 1.312-13.208 1.912-35.24 1.912v-44.008h-14.328a362.88 362.88 0 0 0 5.496 17.224l1.128 6.704-35.224 2.864zM861.952 136.904h38.832v-9.592h-51.064v-22.944h51.064v-10.536h-39.928v-21.992h39.928v-8.616h-42.16v-22.976h42.16v-8.576h-48.84v-23.92h48.84v-21.072c-28.096 0-49.936 5.104-65.472 15.32 9.616 20.4 14.032 51.024 13.304 91.832h-27.752c8.848 16.576 18.848 38.896 29.976 66.992h-79.952v-25.84h33.296c-2.928-13.384-7.008-23.296-12.168-29.664-4.448-6.376-11.136-9.888-19.992-10.536v-25.8h41.072v-22a439.984 439.984 0 0 0-2.224-15.312c-2.984 2.528-7.384 12.088-13.312 28.696-16.296-3.832-26.28-5.752-29.984-5.752a269.592 269.592 0 0 1 27.768-53.552c-5.92-10.216-17.056-19.48-33.304-27.76 11.088-5.776 20.704-12.456 28.856-20.096a393.696 393.696 0 0 1 23.296 22.008c2.984 1.904 4.832 3.176 5.536 3.792 17.768-13.992 51.456-21.016 101.048-21.016h91.04a74.664 74.664 0 0 0 14.456 32.536c-25.16-2.568-55.512-3.848-91.04-3.848v21.072h65.504v23.92h-65.504v8.576h57.744v22.976h-57.744v8.616h57.744v32.528h24.392v23.92h-24.392v31.544h-57.744c0 4.496 0.752 8.288 2.224 11.472v2.912c-0.768 1.264-2.992 1.912-6.68 1.912h-29.992v-16.296h-38.832v-22.928z m73.28-9.592v9.592h22.208v-9.592h-22.208z m0-22.944h23.304v-10.536h-23.304v10.536zM329.696 552.888h-48.384l-39.008-98.944 98.224 2.168 526.496 7.944-9.384-26.728-456.168-11.112-277.328-6.016c-23.584 13.264-29.576 30.632-16.576 53.536 46 72.304 100.48 128.672 175.344 140.04h69.784l-23-60.888zM733.408 597.68l-45.504-121.344 183.456 0.728 14.448 39-106.888-0.72 19.496 49.12 104-0.728 9.392 29.616-178.4 4.328zM545.632 604.896l-47.664-129.272 169 1.44 15.16 39-96.776-0.72 20.216 52.72h96.784l13.72 31.784-170.44 5.048zM365.808 612.12l-49.112-137.952h70.056l13 39.016 33.224-39.016 47.664 0.728 8.664 25.28-26-0.728-15.88 17.336h49.824l33.224 88.832-164.664 6.504z m56.328-33.224l56.336-1.456-8.672-24.552h-54.888l7.224 26.008zM510.192 805.552c119.76 0 228.544-33.056 307.448-86.36 79.504-53.72 128.8-128.056 128.8-210.12 0-82.056-49.296-156.408-128.8-210.12-78.896-53.312-187.688-86.368-307.448-86.368-119.752 0-228.544 33.056-307.44 86.368-79.504 53.728-128.8 128.064-128.8 210.12 0 82.064 49.288 156.4 128.8 210.12 78.896 53.304 187.688 86.36 307.44 86.36z m0-10.56c-117.608 0-224.304-32.344-301.544-84.544-76.632-51.784-124.144-123.048-124.144-201.376s47.512-149.592 124.144-201.368c77.24-52.2 183.936-84.552 301.544-84.552s224.304 32.352 301.544 84.552c76.632 51.776 124.144 123.04 124.144 201.368 0 78.328-47.504 149.592-124.144 201.384-77.232 52.192-183.928 84.536-301.544 84.536zM360.752 623.288c12.28 53.744 32.976 99.52 59.048 131.632 25.776 31.768 56.864 50.304 90.4 50.304 32.856 0 63.328-17.76 88.8-48.312 25.728-30.864 46.392-75.016 59.104-127.088l-10.216-2.472c-12.312 50.432-32.24 93.088-57.008 122.816-23.456 28.152-51.168 44.504-80.672 44.504-30.168 0-58.464-17.096-82.24-46.384-25.048-30.872-45.016-75.152-56.944-127.352l-10.272 2.352zM793.056 420.96c-19.04-61.104-57.328-113.832-107.696-151-49.136-36.256-109.744-57.72-175.168-57.72a293.944 293.944 0 0 0-171.008 54.712c-49.696 35.376-88.12 85.696-108.64 144.344l9.936 3.472a288 288 0 0 1 104.808-139.232 283.512 283.512 0 0 1 164.904-52.728c63.12 0 121.552 20.664 168.888 55.608 48.6 35.848 85.544 86.728 103.904 145.688l10.072-3.144zM235.928 621.064a299.008 299.008 0 0 0 109.528 134.48 293.944 293.944 0 0 0 164.744 50.352 293.896 293.896 0 0 0 160.216-47.384 298.888 298.888 0 0 0 109.76-127.488l-9.6-4.336a288.48 288.48 0 0 1-105.888 123.008 283.28 283.28 0 0 1-154.488 45.648 283.416 283.416 0 0 1-158.848-48.536 288.368 288.368 0 0 1-105.648-129.696l-9.776 3.952zM690.4 772.336c-14.568-16.744-39.976-30.952-72.168-40.824-30.864-9.464-68.088-15-108.032-15-39.784 0-76.848 5.488-107.584 14.856-32.096 9.776-57.488 23.88-72.208 40.528l7.872 6.96c13.392-15.16 37.104-28.176 67.384-37.4 29.8-9.072 65.8-14.384 104.528-14.384 38.944 0 75.096 5.352 104.936 14.496 30.32 9.288 54.016 22.424 67.32 37.688l7.952-6.92zM332.272 248.168c15.264 16.104 40.664 29.712 72.448 39.152 30.44 9.024 66.848 14.304 105.856 14.304 39.008 0 75.416-5.28 105.856-14.304 31.784-9.44 57.176-23.048 72.456-39.152l-7.632-7.248c-14 14.768-37.768 27.384-67.784 36.288-29.488 8.752-64.872 13.856-102.896 13.856-38.032 0-73.416-5.112-102.888-13.856-30.016-8.904-53.792-21.52-67.792-36.288l-7.624 7.248zM165.48 337.96c45.816 15.096 99.856 27.232 159.52 35.512 57.376 7.96 119.896 12.344 185.192 12.344 65.448 0 128.088-4.4 185.576-12.392 59.776-8.312 113.896-20.504 159.736-35.672l-3.296-10.016c-45.32 14.992-98.816 27.04-157.888 35.256-56.896 7.904-119.048 12.264-184.128 12.264-64.928 0-126.952-4.336-183.76-12.216-58.968-8.184-112.392-20.176-157.664-35.104l-3.288 10.024zM167.6 679.496l-1.68 0.56 3.264 10.008 1.672-0.552-3.256-10.016zM172.656 688.928l0.024-0.008c-0.016-0.008-0.016-0.008-0.024 0.008zM855.424 680.8c-45.856-15.296-100.056-27.592-159.928-35.968-57.616-8.064-120.456-12.512-186.12-12.512-63.84 0-125.336 4.36-181.952 12.144-59.304 8.176-113.224 20.144-158.912 34.848l3.208 10.008c45.112-14.512 98.416-26.344 157.104-34.424 56.032-7.712 117.032-12.024 180.544-12.024 65.296 0 127.64 4.4 184.672 12.384 59.248 8.288 112.816 20.432 158.04 35.52l3.344-9.976zM330.4 246.224c0.504 0.592 0.84 0.96 0.928 1.056h-0.016c0.088 0.104 0.232 0.232 0.968 1.016l7.624-7.248c-0.136-0.152-0.128-0.168-0.8-0.912h-0.016c-0.504-0.536-0.744-0.784-0.8-0.856l-7.888 6.944zM367.68 412.856c12.16-53.232 34.072-102.672 61.176-137.928 24.768-32.208 53.712-52.432 83.192-52.432 28.456 0 57.448 21.4 82.696 54.296 28.296 36.896 51.616 87.992 64.328 140.032l10.216-2.472c-13.04-53.448-37.048-105.96-66.168-143.936-27.184-35.448-59.032-58.464-91.072-58.464-33.016 0-64.808 21.8-91.52 56.536-28.032 36.456-50.624 87.344-63.12 142.008l10.272 2.36zM515.336 800.992v-182.424h-10.56V800.992h10.56zM515.336 419.544v-201.856h-10.56V419.544h10.56zM79.904 514.344h39.184v-10.544H79.904v10.544zM903.872 514.344h39.176v-10.544h-39.176v10.544z"  horiz-adv-x="1026" />

    
    <glyph glyph-name="clock" unicode="&#58890;" d="M705.556 383.001H579.88a70.3 70.3 0 0 1-50.292 50.292V611.759a17.597 17.597 0 1 1-35.194 0v-178.466c-30.266-7.866-52.79-35.176-52.79-67.888 0-38.819 31.569-70.387 70.387-70.387 32.695 0 60.023 22.523 67.889 52.79h125.676a17.597 17.597 0 1 1 0 35.193z m-193.565-52.79c-19.409 0-35.193 15.784-35.193 35.194s15.784 35.193 35.193 35.193 35.194-15.784 35.194-35.193S531.4 330.21 511.99 330.21zM883.494 724.185l72.077-72.076a17.597 17.597 0 0 1 24.881 0c55.73 55.711 55.73 146.387 0 202.099s-146.387 55.711-202.099 0a17.544 17.544 0 0 1 0-24.882l80.26-80.259-29.898-29.897C744.603 794.555 633.585 840.517 512.01 840.517S279.415 794.555 195.302 719.17l-29.914 29.897 80.259 80.259a17.544 17.544 0 0 1 0 24.882c-55.712 55.711-146.37 55.711-202.1 0s-55.728-146.388 0-202.1a17.597 17.597 0 0 1 24.882 0l72.077 72.077 29.492-29.492c-82.335-85.468-133.12-201.536-133.12-329.288 0-174.173 94.266-326.667 234.407-409.39l-53.283-53.282a17.58 17.58 0 1 1 24.882-24.882l60.709 60.709c62.96-30.865 133.682-48.268 208.398-48.268S657.43-92.305 720.39-61.44l60.709-60.71a17.544 17.544 0 0 1 24.881 0 17.58 17.58 0 0 1 0 24.883l-53.283 53.283c140.141 82.722 234.407 235.216 234.407 409.389 0 127.752-50.784 243.82-133.12 329.288l29.51 29.492z m72.059 105.14c37.763-37.762 41.564-96.817 11.42-138.89L816.68 840.746a107.868 107.868 0 0 0 138.874-11.42zM57.009 690.453C26.866 732.508 30.667 791.563 68.43 829.326s96.818 41.546 138.874 11.42L57.01 690.452z m454.982-764.967c-242.571 0-439.919 197.348-439.919 439.92S269.42 805.324 511.992 805.324 951.91 607.976 951.91 365.404 754.58-74.514 511.991-74.514zM511.991 719.47a17.597 17.597 0 0 1 17.597 17.596v17.597a17.597 17.597 0 1 1-35.194 0v-17.597a17.597 17.597 0 0 1 17.597-17.597z m0-703.872a17.597 17.597 0 0 1-17.597-17.596v-17.597a17.597 17.597 0 1 1 35.194 0v17.597a17.597 17.597 0 0 1-17.597 17.596z m369.532 334.34h17.597a17.597 17.597 0 1 1 0 35.193h-17.597a17.597 17.597 0 1 1 0-35.194zM142.46 385.13h-17.597a17.597 17.597 0 1 1 0-35.194h17.597a17.597 17.597 0 1 1 0 35.194z m630.844 268.597l-12.44-12.441a17.58 17.58 0 1 1 24.881-24.882l12.441 12.44a17.58 17.58 0 1 1-24.882 24.883zM238.256 118.68l-12.441-12.44a17.58 17.58 0 1 1 24.882-24.882l12.44 12.44a17.58 17.58 0 1 1-24.881 24.882z m547.488 0a17.58 17.58 0 1 1-24.882-24.882l12.441-12.44a17.544 17.544 0 0 1 24.882 0 17.58 17.58 0 0 1 0 24.881l-12.44 12.441zM250.697 653.728a17.58 17.58 0 1 1-24.882-24.882l12.44-12.441a17.544 17.544 0 0 1 24.883 0 17.58 17.58 0 0 1 0 24.882l-12.441 12.44z"  horiz-adv-x="1024" />

    
    <glyph glyph-name="clock-alarm" unicode="&#58891;" d="M853.333-93.867H170.667c-85.334 0-153.6 68.267-153.6 153.6V742.4C17.067 827.733 85.333 896 170.667 896h682.666c85.334 0 153.6-68.267 153.6-153.6v-682.667c0-85.333-68.266-153.6-153.6-153.6zM170.667 861.867C105.813 861.867 51.2 807.253 51.2 742.4v-682.667c0-64.853 54.613-119.466 119.467-119.466h682.666c64.854 0 119.467 54.613 119.467 119.466V742.4c0 64.853-54.613 119.467-119.467 119.467H170.667zM785.067 42.667H238.933c-47.786 0-85.333 37.546-85.333 85.333V674.133c0 47.787 37.547 85.334 85.333 85.334h546.134c47.786 0 85.333-37.547 85.333-85.334V128c0-47.787-37.547-85.333-85.333-85.333zM238.933 725.333c-27.306 0-51.2-23.893-51.2-51.2V128c0-27.307 23.894-51.2 51.2-51.2h546.134c27.306 0 51.2 23.893 51.2 51.2V674.133c0 27.307-23.894 51.2-51.2 51.2H238.933zM512 691.2c-10.24 0-17.067 6.827-17.067 17.067V742.4c0 10.24 6.827 17.067 17.067 17.067s17.067-6.827 17.067-17.067v-34.133c0-10.24-6.827-17.067-17.067-17.067z m-187.733 3.413c-6.827 0-10.24 3.414-13.654 10.24l-17.066 27.307c-6.827 10.24-3.414 20.48 6.826 23.893 6.827 6.827 17.067 3.414 20.48-6.826l17.067-30.72c3.413-6.827 3.413-17.067-6.827-23.894 0 3.414-3.413 0-6.826 0z m-122.88-139.946c-3.414 0-6.827 0-10.24 3.413l-27.307 17.067c-10.24 3.413-13.653 13.653-6.827 20.48s13.654 13.653 23.894 6.826l30.72-17.066c6.826-3.414 10.24-13.654 6.826-23.894-6.826-3.413-13.653-6.826-17.066-6.826zM204.8 384h-34.133c-10.24 0-17.067 6.827-17.067 17.067s6.827 17.066 17.067 17.066H204.8c10.24 0 17.067-6.826 17.067-17.066S215.04 384 204.8 384z m-34.133-187.733c-6.827 0-10.24 3.413-13.654 10.24-3.413 6.826-3.413 17.066 6.827 23.893l30.72 17.067c6.827 3.413 17.067 3.413 23.893-6.827 3.414-6.827 3.414-17.067-6.826-23.893l-30.72-17.067c-3.414-3.413-6.827-3.413-10.24-3.413zM307.2 46.08c-3.413 0-6.827 0-10.24 3.413-6.827 3.414-10.24 13.654-6.827 23.894l17.067 30.72c3.413 6.826 13.653 10.24 23.893 6.826 6.827-3.413 10.24-13.653 6.827-23.893l-17.067-30.72c-3.413-6.827-6.826-10.24-13.653-10.24z m204.8-3.413c-10.24 0-17.067 6.826-17.067 17.066v34.134c0 10.24 6.827 17.066 17.067 17.066s17.067-6.826 17.067-17.066v-34.134c0-10.24-6.827-17.066-17.067-17.066zM341.333-128h-102.4c-10.24 0-17.066 6.827-17.066 17.067s6.826 17.066 17.066 17.066h102.4c10.24 0 17.067-6.826 17.067-17.066S351.573-128 341.333-128zM512 349.867c-27.307 0-51.2 23.893-51.2 51.2s23.893 51.2 51.2 51.2 51.2-23.894 51.2-51.2-23.893-51.2-51.2-51.2z m0 68.266c-10.24 0-17.067-6.826-17.067-17.066S501.76 384 512 384s17.067 6.827 17.067 17.067-6.827 17.066-17.067 17.066zM512 431.787c-10.24 0-17.067 6.826-17.067 17.066V640c0 10.24 6.827 17.067 17.067 17.067s17.067-6.827 17.067-17.067v-191.147c0-10.24-6.827-17.066-17.067-17.066z m136.533-184.32c-3.413 0-10.24 0-13.653 3.413l-102.4 102.4c-6.827 6.827-6.827 17.067 0 23.893s17.067 6.827 23.893 0l102.4-102.4c6.827-6.826 6.827-17.066 0-23.893 0-3.413-6.826-3.413-10.24-3.413zM785.067-128h-102.4c-10.24 0-17.067 6.827-17.067 17.067s6.827 17.066 17.067 17.066h102.4c10.24 0 17.066-6.826 17.066-17.066S795.307-128 785.067-128z m-85.334 822.613c-3.413 0-6.826 0-10.24 3.414-6.826 3.413-10.24 13.653-6.826 23.893l17.066 30.72c6.827 6.827 17.067 10.24 27.307 3.413 6.827-3.413 10.24-13.653 6.827-23.893L716.8 701.44c-6.827-3.413-10.24-6.827-17.067-6.827z m122.88-139.946c-6.826 0-10.24 3.413-13.653 10.24-3.413 6.826-3.413 17.066 6.827 23.893l30.72 17.067c6.826 3.413 17.066 3.413 23.893-6.827 3.413-6.827 3.413-17.067-6.827-23.893l-30.72-17.067c-3.413-3.413-6.826-3.413-10.24-3.413zM853.333 384H819.2c-10.24 0-17.067 6.827-17.067 17.067s6.827 17.066 17.067 17.066h34.133c10.24 0 17.067-6.826 17.067-17.066S863.573 384 853.333 384z m0-187.733c-3.413 0-6.826 0-10.24 3.413l-30.72 17.067c-6.826 3.413-10.24 13.653-6.826 23.893s13.653 10.24 23.893 6.827l30.72-17.067c6.827-3.413 10.24-13.653 6.827-23.893-3.414-6.827-6.827-10.24-13.654-10.24zM716.8 46.08c-6.827 0-10.24 3.413-13.653 10.24l-17.067 30.72c-3.413 6.827-3.413 17.067 6.827 23.893 6.826 3.414 17.066 3.414 23.893-6.826l17.067-30.72c3.413-6.827 3.413-17.067-6.827-23.894-3.413 0-6.827-3.413-10.24-3.413z"  horiz-adv-x="1024" />

    
    <glyph glyph-name="clock-plus" unicode="&#58892;" d="M512-128c282.304 0 512 229.696 512 512S794.304 896 512 896 0 666.304 0 384s229.696-512 512-512z m0 992c264.672 0 480-215.328 480-480S776.672-96 512-96 32 119.328 32 384 247.328 864 512 864zM641.952 199.424a15.936 15.936 0 0 1 22.656 0 16 16 0 0 1 0 22.624L512 374.624V597.792a16 16 0 0 1-32 0V368c0-4.256 1.696-8.32 4.672-11.328l157.28-157.248zM96 384a32 32 0 1 1 64 0 32 32 0 1 1-64 0zM864 384a32 32 0 1 1 64 0 32 32 0 1 1-64 0zM480 768a32 32 0 1 1 64 0 32 32 0 1 1-64 0zM480 0a32 32 0 1 1 64 0 32 32 0 1 1-64 0zM224 640a32 32 0 1 1 64 0 32 32 0 1 1-64 0zM736 128a32 32 0 1 1 64 0 32 32 0 1 1-64 0zM768 640a32 32 0 1 1 64 0 32 32 0 1 1-64 0zM224 128a32 32 0 1 1 64 0 32 32 0 1 1-64 0z"  horiz-adv-x="1024" />

    
    <glyph glyph-name="clock-sand" unicode="&#58893;" d="M525.653 274.773c-6.826 6.827-20.48 6.827-27.306 0l-170.667-204.8c-3.413-3.413-6.827-13.653-3.413-17.066 3.413-6.827 10.24-10.24 17.066-10.24h341.334c10.24 0 17.066 6.826 17.066 17.066 0 6.827-3.413 10.24-6.826 13.654L525.653 274.773zM512 418.133c3.413 0 6.827 0 10.24 3.414l119.467 102.4c6.826 3.413 6.826 13.653 3.413 20.48-3.413 6.826-10.24 10.24-17.067 10.24H389.12c-6.827 0-13.653-3.414-17.067-10.24-3.413-6.827 0-13.654 3.414-20.48l119.466-102.4c10.24-3.414 13.654-3.414 17.067-3.414zM785.067-1.707v163.84c0 54.614-23.894 105.814-68.267 143.36l-75.093 58.027c-6.827 3.413-10.24 10.24-10.24 20.48 0 6.827 3.413 13.653 10.24 20.48l78.506 71.68c40.96 37.547 68.267 88.747 68.267 143.36V769.707c20.48 10.24 34.133 34.133 34.133 58.026C822.613 865.28 791.893 896 754.347 896h-481.28C235.52 896 204.8 865.28 204.8 827.733c0-23.893 13.653-47.786 34.133-58.026v-153.6c0-54.614 23.894-105.814 64.854-143.36l78.506-71.68c6.827-3.414 10.24-10.24 10.24-20.48s-3.413-13.654-6.826-17.067L307.2 305.493c-40.96-37.546-68.267-88.746-68.267-143.36v-163.84c-20.48-10.24-34.133-34.133-34.133-58.026 0-37.547 30.72-68.267 68.267-68.267h477.866c37.547 0 68.267 30.72 68.267 68.267 0 23.893-13.653 47.786-34.133 58.026z m-512 163.84c0 44.374 20.48 88.747 54.613 116.054l78.507 58.026c13.653 10.24 20.48 27.307 20.48 44.374s-6.827 34.133-20.48 44.373l-78.507 71.68c-34.133 30.72-54.613 75.093-54.613 119.467v143.36h477.866v-143.36c0-44.374-20.48-88.747-54.613-116.054l-78.507-71.68c-13.653-10.24-20.48-27.306-20.48-44.373s6.827-34.133 20.48-44.373l75.094-58.027c34.133-30.72 54.613-71.68 54.613-116.053v-157.014H273.067v153.6z"  horiz-adv-x="1024" />

    
    <glyph glyph-name="date" unicode="&#58894;" d="M883.279 747.461h-43.017v12.78c0 38.31-31.2 69.633-69.324 69.633h-1.024c-38.13 0-69.324-31.321-69.324-69.633v-12.78H317.203v12.78c0 38.31-31.196 69.633-69.324 69.633h-1.055c-38.127 0-69.323-31.321-69.323-69.633v-12.78h-42.924c-38.128 0-69.324-31.351-69.324-69.61V12.15c0-38.31 31.195-69.633 69.324-69.633h748.702c38.127 0 69.322 31.323 69.322 69.633V677.852c0 38.258-31.195 69.609-69.322 69.609z m-154.96 12.78c0 23.024 18.632 41.778 41.594 41.778h1.024c22.931 0 41.593-18.754 41.593-41.778v-123.857c0-23.024-18.662-41.778-41.593-41.778h-1.024c-22.962 0-41.595 18.754-41.595 41.778V760.241z m-523.088 0c0 23.024 18.632 41.778 41.6 41.778h1.048c22.904 0 41.594-18.754 41.594-41.778v-123.857c0-23.024-18.691-41.778-41.594-41.778h-1.049c-22.967 0-41.6 18.754-41.6 41.778V760.241z m678.048-762.049H134.577c-7.52 0-13.865 6.468-13.865 13.958V501.606h776.433V12.15c0-7.489-6.347-13.958-13.866-13.958zM222.615 401.916h127.918v-62.95H222.615v62.95z m223.348 0H572.87v-62.95H445.963v62.95z m222.336 0h124.873v-62.95H668.3v62.95zM222.615 273.99h127.918v-61.927H222.615V273.99z m223.348 0H572.87v-61.927H445.963V273.99z m222.336 0h124.873v-61.927H668.3V273.99zM222.615 149.115h127.918v-64.972H222.615v64.972z m223.348 0H572.87v-64.972H445.963v64.972z m222.336 0h124.873v-64.972H668.3v64.972z m0 0"  horiz-adv-x="1024" />

    
    <glyph glyph-name="date-line" unicode="&#58896;" d="M944 816h-16V848c0 26.468-21.532 48-48 48s-48-21.532-48-48v-32H192V848c0 26.468-21.532 48-48 48S96 874.468 96 848v-32H80c-44.112 0-80-35.888-80-80v-704c0-44.112 35.888-80 80-80h176c8.836 0 16 7.164 16 16s-7.164 16-16 16H80c-26.468 0-48 21.532-48 48V640h768c8.836 0 16 7.164 16 16s-7.164 16-16 16H32v64c0 26.468 21.532 48 48 48h16v-32c0-26.468 21.532-48 48-48s48 21.532 48 48v32h640v-32c0-26.468 21.532-48 48-48s48 21.532 48 48v32h16c26.468 0 48-21.532 48-48v-64h-32c-8.836 0-16-7.164-16-16s7.164-16 16-16h32v-608c0-26.468-21.532-48-48-48H767.996c-8.836 0-16-7.164-16-16s7.164-16 16-16H944c44.112 0 80 35.888 80 80V736c0 44.112-35.888 80-80 80z m-784-64c0-8.822-7.178-16-16-16s-16 7.178-16 16V799.98 800 848c0 8.822 7.178 16 16 16s16-7.178 16-16v-96z m720-16c-8.822 0-16 7.178-16 16V848c0 8.822 7.178 16 16 16s16-7.178 16-16v-47.962l-0.002-0.038 0.002-0.038V752c0-8.822-7.178-16-16-16zM896 640c8.836 0 16 7.164 16 16s-7.164 16-16 16h-32c-8.836 0-16-7.164-16-16s7.164-16 16-16h32zM496 496h32c8.836 0 16 7.164 16 16s-7.164 16-16 16h-32c-8.836 0-16-7.164-16-16s7.164-16 16-16zM496 416h32c8.836 0 16 7.164 16 16s-7.164 16-16 16h-32c-8.836 0-16-7.164-16-16s7.164-16 16-16zM608 496h32c8.836 0 16 7.164 16 16s-7.164 16-16 16h-32c-8.836 0-16-7.164-16-16s7.164-16 16-16zM608 416h32c8.836 0 16 7.164 16 16s-7.164 16-16 16h-32c-8.836 0-16-7.164-16-16s7.164-16 16-16zM384 496h32c8.836 0 16 7.164 16 16s-7.164 16-16 16h-32c-8.836 0-16-7.164-16-16s7.164-16 16-16zM384 416h32c8.836 0 16 7.164 16 16s-7.164 16-16 16h-32c-8.836 0-16-7.164-16-16s7.164-16 16-16zM272 496h32c8.836 0 16 7.164 16 16s-7.164 16-16 16h-32c-8.836 0-16-7.164-16-16s7.164-16 16-16zM272 416h32c8.836 0 16 7.164 16 16s-7.164 16-16 16h-32c-8.836 0-16-7.164-16-16s7.164-16 16-16zM272 336h32c8.836 0 16 7.164 16 16s-7.164 16-16 16h-32c-8.836 0-16-7.164-16-16s7.164-16 16-16zM260.68 260.68c2.98-2.98 7.12-4.68 11.32-4.68 4.22 0 8.34 1.7 11.32 4.68 2.98 2.98 4.68 7.12 4.68 11.32s-1.7 8.34-4.68 11.32A16.1 16.1 0 0 1 272 288a16.1 16.1 0 0 1-11.32-4.68A16.1 16.1 0 0 1 256 272c0-4.22 1.7-8.34 4.68-11.32zM720 496h32c8.836 0 16 7.164 16 16s-7.164 16-16 16h-32c-8.836 0-16-7.164-16-16s7.164-16 16-16zM720 416h32c8.836 0 16 7.164 16 16s-7.164 16-16 16h-32c-8.836 0-16-7.164-16-16s7.164-16 16-16zM720 336h32c8.836 0 16 7.164 16 16s-7.164 16-16 16h-32c-8.836 0-16-7.164-16-16s7.164-16 16-16zM740.68 283.32A16.1 16.1 0 0 1 736 272c0-4.22 1.7-8.34 4.68-11.32A16.1 16.1 0 0 1 752 256c4.22 0 8.34 1.7 11.32 4.68 2.98 2.98 4.68 7.12 4.68 11.32 0 4.22-1.7 8.34-4.68 11.32-2.98 2.98-7.12 4.68-11.32 4.68a16.1 16.1 0 0 1-11.32-4.68zM816 512c0-8.836 7.164-16 16-16h32c8.836 0 16 7.164 16 16s-7.164 16-16 16h-32c-8.836 0-16-7.164-16-16zM832 416h32c8.836 0 16 7.164 16 16s-7.164 16-16 16h-32c-8.836 0-16-7.164-16-16s7.164-16 16-16zM832 336h32c8.836 0 16 7.164 16 16s-7.164 16-16 16h-32c-8.836 0-16-7.164-16-16s7.164-16 16-16zM832 256h32c8.836 0 16 7.164 16 16s-7.164 16-16 16h-32c-8.836 0-16-7.164-16-16s7.164-16 16-16zM832 176h32c8.836 0 16 7.164 16 16s-7.164 16-16 16h-32c-8.836 0-16-7.164-16-16s7.164-16 16-16zM832 96h32c8.836 0 16 7.164 16 16s-7.164 16-16 16h-32c-8.836 0-16-7.164-16-16s7.164-16 16-16zM192 528h-32c-8.836 0-16-7.164-16-16s7.164-16 16-16h32c8.836 0 16 7.164 16 16s-7.164 16-16 16zM192 448h-32c-8.836 0-16-7.164-16-16s7.164-16 16-16h32c8.836 0 16 7.164 16 16s-7.164 16-16 16zM192 368h-32c-8.836 0-16-7.164-16-16s7.164-16 16-16h32c8.836 0 16 7.164 16 16s-7.164 16-16 16zM192 288h-32c-8.836 0-16-7.164-16-16s7.164-16 16-16h32c8.836 0 16 7.164 16 16s-7.164 16-16 16zM192 208h-32c-8.836 0-16-7.164-16-16s7.164-16 16-16h32c8.836 0 16 7.164 16 16s-7.164 16-16 16zM192 128h-32c-8.836 0-16-7.164-16-16s7.164-16 16-16h32c8.836 0 16 7.164 16 16s-7.164 16-16 16zM512 352c-132.336 0-240-107.664-240-240s107.664-240 240-240 240 107.664 240 240-107.664 240-240 240z m16-447.39V-80c0 8.836-7.164 16-16 16s-16-7.164-16-16v-15.39C394.036-87.598 312.402-5.962 304.61 96H320c8.836 0 16 7.164 16 16s-7.164 16-16 16h-15.39c7.792 101.964 89.428 183.598 191.39 191.39V304c0-8.836 7.164-16 16-16s16 7.164 16 16v15.39c101.964-7.792 183.598-89.428 191.39-191.39H704c-8.836 0-16-7.164-16-16s7.164-16 16-16h15.39C711.598-5.964 629.964-87.598 528-95.39zM640 128h-82.752c-4.828 13.614-15.632 24.418-29.248 29.248V240c0 8.836-7.164 16-16 16s-16-7.164-16-16v-82.752c-18.622-6.604-32-24.39-32-45.248 0-26.468 21.532-48 48-48 20.858 0 38.644 13.378 45.248 32H640c8.836 0 16 7.164 16 16s-7.164 16-16 16z m-128-32c-8.822 0-16 7.178-16 16s7.178 16 16 16 16-7.178 16-16-7.178-16-16-16z"  horiz-adv-x="1024" />

    
    <glyph glyph-name="date-plus" unicode="&#58897;" d="M693.527 435.2h97.746v65.164h-97.746V435.2zM232.727 272.29h97.746v65.165h-97.746v-65.164zM465.455 272.29H563.2v65.165h-97.745v-65.164zM791.273 337.455h-93.091v-65.164h93.09v65.164zM232.727 109.382h97.746v65.163h-97.746v-65.163zM460.8 104.727h97.745v65.164H460.8v-65.164zM693.527 104.727h97.746v65.164h-97.746v-65.164zM330.473 500.364h-97.746v-60.51h97.746v60.51zM563.2 500.364h-97.745v-60.51H563.2v60.51zM921.6 802.91H800.582V872.726C800.582 886.691 791.272 896 777.309 896s-23.273-9.31-23.273-23.273V802.91H535.273V872.727C535.273 886.691 525.963 896 512 896c-13.964 0-23.273-9.31-23.273-23.273V802.91H274.618V872.727C274.618 886.691 265.31 896 251.345 896c-13.963 0-23.272-9.31-23.272-23.273V802.91H102.4C46.545 802.91 0 756.364 0 700.51v-721.454C0-81.455 46.545-128 102.4-128h814.545c55.855 0 102.4 46.545 102.4 102.4V700.51c4.655 55.854-41.89 102.4-97.745 102.4z m55.855-828.51c0-32.582-27.928-55.855-55.855-55.855H102.4c-27.927 0-55.855 27.928-55.855 55.855V700.51c0 27.926 27.928 55.854 55.855 55.854h121.018v-69.819c4.655-9.309 13.964-23.272 27.927-23.272 13.964 0 23.273 9.309 23.273 23.272v69.819h214.11v-69.819c0-9.309 9.308-23.272 23.272-23.272 13.964 0 23.273 9.309 23.273 23.272v69.819h218.763v-69.819c0-13.963 9.31-23.272 23.273-23.272s23.273 9.309 23.273 23.272v69.819H921.6c27.927 0 55.855-27.928 55.855-55.855V-25.6z"  horiz-adv-x="1024" />

    
    <glyph glyph-name="time-plus" unicode="&#58898;" d="M690.44 563.079L503.82 376.41999999999996 381.074 499.174c-8.74 8.74-22.947 8.74-31.687 0-8.74-8.74-8.74-22.949 0-31.688l122.754-122.75-35.18-35.178c-8.742-8.742-8.742-22.95 0-31.688 8.738-8.735 22.942-8.735 31.681 0l35.18 35.18 35.722-35.717c8.735-8.738 22.942-8.738 31.682 0 8.74 8.74 8.74 22.948 0 31.684l-35.716 35.72 186.612 186.612c8.74 8.74 8.74 22.948 0 31.688-8.74 8.783-22.948 8.783-31.682 0.042zM510.544 833.635c-247.517 0-448.159-200.641-448.159-448.16 0-247.517 200.641-448.16 448.16-448.16 247.519 0 448.16 200.642 448.16 448.16 0 247.519-200.641 448.16-448.16 448.16z m22.408-850.025V94.173c0 12.368-10.038 22.406-22.408 22.406-12.368 0-22.406-10.038-22.406-22.406V-16.389999999999986c-203.42 11.34-369.107 175.053-379.684 379.46h110.789c12.369 0 22.406 10.037 22.406 22.406s-10.037 22.406-22.406 22.406H108.68c12.326 202.974 177.246 368.076 379.458 379.595v-110.699c0-12.369 10.038-22.406 22.406-22.406 12.371 0 22.408 10.038 22.408 22.406V787.4300000000001C735.21 775.91 900.13 610.81 912.458 407.882h-110.61c-12.37 0-22.406-10.039-22.406-22.406s10.037-22.407 22.406-22.407h110.79c-10.58-204.406-176.265-368.12-379.686-379.459z m0 0"  horiz-adv-x="1024" />

    
    <glyph glyph-name="time-folder" unicode="&#58899;" d="M614.4 8.533c-3.413 0-6.827 0-10.24 3.414l-102.4 68.266c-3.413 3.414-6.827 6.827-6.827 13.654V213.333c0 10.24 6.827 17.067 17.067 17.067s17.067-6.827 17.067-17.067v-109.226l95.573-64.854c6.827-6.826 10.24-17.066 3.413-23.893-3.413-3.413-6.826-6.827-13.653-6.827zM904.533 76.8H785.067c-10.24 0-17.067 6.827-17.067 17.067s6.827 17.066 17.067 17.066h119.466c37.547 0 68.267 30.72 68.267 68.267V554.667c0 37.546-30.72 68.266-68.267 68.266H406.187c-44.374 0-85.334 27.307-98.987 71.68l-3.413 20.48c-10.24 23.894-34.134 44.374-64.854 44.374H119.467c-37.547 0-68.267-30.72-68.267-68.267v-512c0-37.547 30.72-68.267 68.267-68.267h119.466c10.24 0 17.067-6.826 17.067-17.066s-6.827-17.067-17.067-17.067H119.467c-58.027 0-102.4 44.373-102.4 102.4v512c0 58.027 44.373 102.4 102.4 102.4h119.466c44.374 0 81.92-27.307 95.574-71.68l6.826-20.48c6.827-23.893 34.134-44.373 64.854-44.373h498.346c58.027 0 102.4-44.374 102.4-102.4V179.2c0-58.027-44.373-102.4-102.4-102.4zM955.733 605.867c-10.24 0-17.066 6.826-17.066 17.066V793.6c0 37.547-30.72 68.267-68.267 68.267H153.6c-37.547 0-68.267-30.72-68.267-68.267v-17.067c0-10.24-6.826-17.066-17.066-17.066S51.2 766.293 51.2 776.533V793.6C51.2 851.627 95.573 896 153.6 896h716.8c58.027 0 102.4-44.373 102.4-102.4v-170.667c0-10.24-6.827-17.066-17.067-17.066zM512-128c-122.88 0-221.867 98.987-221.867 221.867S389.12 315.733 512 315.733s221.867-98.986 221.867-221.866S634.88-128 512-128z m0 409.6c-102.4 0-187.733-85.333-187.733-187.733S409.6-93.867 512-93.867s187.733 85.334 187.733 187.734S614.4 281.6 512 281.6z"  horiz-adv-x="1024" />

    
    <glyph glyph-name="select-plus" unicode="&#58889;" d="M333.085 160.73000000000002H153.899c-37.053 0-67.195 30.142-67.195 67.195V765.481c0 37.052 30.142 67.195 67.195 67.195h627.15c37.052 0 67.195-30.142 67.195-67.195v-313.573c0-12.359-10.064-22.4-22.4-22.4s-22.399 10.041-22.399 22.4V765.48c0 12.359-10.06 22.399-22.398 22.399H153.9c-12.38 0-22.399-10.04-22.399-22.399v-537.556c0-12.338 10.02-22.399 22.399-22.399h179.185c12.38 0 22.398-10.061 22.398-22.399 0-12.335-10.016-22.397-22.397-22.397zM669.059-63.250999999999976c-8.882 0-17.326 5.337-20.782 14.085L572.246 140.87 439.52-10.844000000000051c-6.126-7-16.01-9.493-24.717-6.211-8.75 3.237-14.525 11.637-14.525 20.955V675.846c0 8.88 5.25 16.885 13.344 20.472a22.446 22.446 0 0 0 24.148-3.892l492.76-447.964c6.867-6.214 9.187-16.054 5.82-24.672-3.324-8.576-11.639-14.307-20.87-14.307H724.614l77.301-193.226c4.594-11.463-1.006-24.498-12.469-29.136l-111.991-44.795a22.654 22.654 0 0 0-8.354-1.62l-0.042 0.043z m-89.593 268.778c1.224 0 2.537-0.088 3.762-0.307 7.698-1.312 14.087-6.518 17.017-13.779l81.238-203.159 70.43 28.173-81.237 203.157c-2.755 6.913-1.924 14.787 2.232 20.912 4.2 6.124 11.11 9.842 18.548 9.842h166.062L445.075 625.318v-561.705l117.547 134.345c4.331 4.856 10.456 7.656 16.844 7.656v-0.087z"  horiz-adv-x="1024" />

    
    <glyph glyph-name="add-new" unicode="&#58885;" d="M160 832c-52.736 0-96-43.264-96-96v-640c0-52.736 43.264-96 96-96h640c52.736 0 96 43.264 96 96V736c0 52.736-43.264 96-96 96z m0-64h640c17.984 0 32-14.016 32-32v-640c0-17.984-14.016-32-32-32H160a31.616 31.616 0 0 0-32 32V736c0 17.984 14.016 32 32 32z m288-128v-192H256v-64h192v-192h64V384h192v64H512V640z"  horiz-adv-x="1024" />

    
    <glyph glyph-name="delete-circle" unicode="&#58886;" d="M512-59.73299999999995c-121.873 0-227.55 43.588-314.112 129.536C111.855 156.46699999999998 68.267 262.12699999999995 68.267 384c0 121.89 43.605 227.294 129.587 313.293C284.416 783.855 390.11 827.733 512 827.733c121.924 0 227.328-43.895 313.327-130.491 86.51-85.914 130.406-191.045 130.406-312.389 0-122.726-43.878-228.437-130.44-315-86-85.981-191.403-129.586-313.293-129.586z m0 853.333c-112.503 0-210.09-40.533-290.014-120.44C142.626 593.784 102.4 496.504 102.4 384c0-112.52 40.243-210.125 119.62-290.065C301.875 14.643000000000029 399.462-25.600000000000023 512-25.600000000000023c112.52 0 209.8 40.226 289.16 119.586C881.085 173.90999999999997 921.6 271.48 921.6 384c0 112.777-40.5 209.766-120.405 289.11C721.766 753.083 624.486 793.6 512 793.6zM342.187 179.20000000000005a34.133 34.133 0 0 0-24.133 58.266L464.572 384 318.054 530.534A34.133 34.133 0 1 0 366.32 578.8l146.654-146.654 145.68 144.213a34.133 34.133 0 0 0 48.026-48.52L561.46 384.085l21.385-20.975 122.334-123.187a34.133 34.133 0 1 0-48.436-48.094L513.075 335.923 366.32 189.16700000000003c-6.656-6.639-15.394-9.967-24.132-9.967z"  horiz-adv-x="1024" />

    
    <glyph glyph-name="edit-plus" unicode="&#58887;" d="M1062.015 771.529l-98.807 98.807C946.526 887.018 923.428 896 900.331 896c-24.381 0-46.196-8.982-62.877-25.664l-48.762-48.762-517.133-517.133c-1.283-1.283-2.567-2.566-2.567-3.85 0 0 0-1.283-1.283-1.283-1.283-1.283-1.283-2.566-2.566-3.85v-1.283c0-1.283 0-1.283-1.283-2.566l-70.577-257.925c-2.566-8.982 0-19.248 6.416-25.664 5.133-5.133 11.55-7.7 19.248-7.7 2.567 0 5.133 0 6.416 1.284l259.208 71.86c1.284 0 1.284 0 2.567 1.283h1.283c1.283 0 2.566 1.283 3.85 2.566 0 0 1.283 0 1.283 1.283 1.283 1.284 2.566 1.284 3.85 2.567l515.85 515.85 48.761 48.761c34.647 33.364 34.647 91.108 0 125.755z m-744.26-689.083l-43.63 43.63 29.514 109.072L426.827 111.96l-109.073-29.514z m10.265 204.03l478.637 478.637 12.832-12.832 43.629-43.63L384.48 230.016l-56.46 56.461z m150.135-150.135l-56.46 56.461L900.33 671.439l56.461-56.462-478.637-478.636z m545.364 545.363l-29.514-29.514L843.87 802.326l30.797 30.797c6.416 6.416 15.398 10.265 25.664 10.265 10.265 0 19.248-3.85 25.664-10.265l98.807-98.807c12.832-15.399 12.832-38.496-1.283-52.612zM949.093 419.93c-14.116 0-26.948-11.55-26.948-26.948v-431.157c0-21.815-17.965-39.78-39.78-39.78H153.505c-21.815 0-39.78 17.965-39.78 39.78V691.97c0 21.814 17.965 39.78 39.78 39.78h431.158c14.115 0 26.947 11.548 26.947 26.947 0 15.398-11.549 26.947-26.947 26.947H153.504c-51.329 0-92.391-41.063-92.391-92.39V-35.61c0-51.328 41.062-92.391 92.39-92.391h728.863c51.328 0 92.39 41.063 92.39 92.391V392.982c1.284 14.116-10.265 26.948-25.663 26.948z"  horiz-adv-x="1089" />

    
    <glyph glyph-name="minus-new" unicode="&#58880;" d="M188.8 760.3c-29.7 0-53.8-24.1-53.8-53.7v-644.7c0-29.7 24.1-53.7 53.8-53.7h645.4c29.7 0 53.8 24.1 53.8 53.7V706.6c0 29.7-24.1 53.7-53.8 53.7H188.8z m-13 71.1h671.5c61.8 0 111.9-50.1 111.9-111.8v-670.8c0-61.7-50.1-111.8-111.9-111.8H175.8C114-63 63.9-13 63.9 48.799999999999955V719.6c0 61.8 50.1 111.8 111.9 111.8z m0 0M673 348H351c-19.8 0-36 16.2-36 36s16.2 36 36 36h322c19.8 0 36-16.2 36-36s-16.2-36-36-36z"  horiz-adv-x="1024" />

    
    <glyph glyph-name="checkbox-on" unicode="&#58881;" d="M832 768H192c-35.4 0-64-28.6-64-64v-640c0-35.4 28.6-64 64-64h640c35.4 0 64 28.6 64 64V704c0 35.4-28.6 64-64 64z m8-696c0-8.8-7.2-16-16-16H200c-8.8 0-16 7.2-16 16V696c0 8.8 7.2 16 16 16h624c8.8 0 16-7.2 16-16v-624zM727.2 510.2L692 546.4c-1.4 1.6-3.6 2.4-5.6 2.4-2.2 0-4.2-0.8-5.6-2.4l-244-245.8-88.8 88.8c-1.6 1.6-3.6 2.4-5.6 2.4-2 0-4-0.8-5.6-2.4l-35.6-35.6c-3.2-3.2-3.2-8.2 0-11.4l112-112c7.2-7.2 16-11.4 23.4-11.4 10.6 0 19.8 7.8 23.2 11h0.2l267.4 268.8c2.8 3.4 2.8 8.4-0.2 11.4z"  horiz-adv-x="1024" />

    
    <glyph glyph-name="radio-on" unicode="&#58882;" d="M512 810.667C276.48 810.667 85.333 619.52 85.333 384S276.48-42.667 512-42.667 938.667 148.48 938.667 384 747.52 810.667 512 810.667z m0-768c-188.587 0-341.333 152.746-341.333 341.333S323.413 725.333 512 725.333 853.333 572.587 853.333 384 700.587 42.667 512 42.667z m0 554.666c-117.76 0-213.333-95.573-213.333-213.333S394.24 170.667 512 170.667 725.333 266.24 725.333 384 629.76 597.333 512 597.333z"  horiz-adv-x="1024" />

    
    <glyph glyph-name="checkbox-off" unicode="&#58883;" d="M713.142857 786.285714H164.571429c-30.342857 0-54.857143-24.514286-54.857143-54.857143v-548.571428c0-30.342857 24.514286-54.857143 54.857143-54.857143h548.571428c30.342857 0 54.857143 24.514286 54.857143 54.857143V731.428571c0 30.342857-24.514286 54.857143-54.857143 54.857143z m6.857143-596.571428c0-7.542857-6.171429-13.714286-13.714286-13.714286H171.428571c-7.542857 0-13.714286 6.171429-13.714285 13.714286V724.571429c0 7.542857 6.171429 13.714286 13.714285 13.714285h534.857143c7.542857 0 13.714286-6.171429 13.714286-13.714285v-534.857143z"  horiz-adv-x="1194" />

    
    <glyph glyph-name="radio-off" unicode="&#58884;" d="M465.454744 818.424512C251.345562 818.424512 77.575488 644.654438 77.575488 430.545256S251.345562 42.666 465.454744 42.666 853.334 216.436074 853.334 430.545256 679.563926 818.424512 465.454744 818.424512z m0-698.182115c-171.4428 0-310.30286 138.860059-310.30286 310.302859S294.011943 740.848116 465.454744 740.848116 775.757603 601.988057 775.757603 430.545256 636.897544 120.242397 465.454744 120.242397z"  horiz-adv-x="1126" />

    
    <glyph glyph-name="edit1" unicode="&#58895;" d="M331.162 48.343L889.92 607.077c12.449 12.454 12.449 32.69 0 45.146l-67.745 67.735-67.713 67.72c-12.47 12.472-32.69 12.472-45.17 0L150.44 228.814a23.75 23.75 0 0 1-7.786-11.66L80.812 11.388c-2.62-8.746-0.025-17.811 6.002-23.843l1.676-1.303 1.301-1.674a23.987 23.987 0 0 1 23.845-6.01l205.773 61.85a23.829 23.829 0 0 1 11.753 7.935zM743.16 731.246l45.584-45.585 44.72-44.725c6.243-6.237 6.243-16.355 0-22.574l-79-79-112.886 112.883 79 79c6.245 6.237 16.347 6.237 22.582 0zM138.204 35.957l48.523 161.42 432.27 432.28 112.884-112.883-432.303-432.31-161.374-48.507z"  horiz-adv-x="1024" />

    
    <glyph glyph-name="add" unicode="&#58980;" d="M853.333333 416H544V725.333333c0 17.066667-14.933333 32-32 32s-32-14.933333-32-32v-309.333333H170.666667c-17.066667 0-32-14.933333-32-32s14.933333-32 32-32h309.333333V42.666667c0-17.066667 14.933333-32 32-32s32 14.933333 32 32V352H853.333333c17.066667 0 32 14.933333 32 32s-14.933333 32-32 32z"  horiz-adv-x="1024" />

    
    <glyph glyph-name="add-circle" unicode="&#58981;" d="M512 821.333333C270.933333 821.333333 74.666667 625.066667 74.666667 384S270.933333-53.333333 512-53.333333 949.333333 142.933333 949.333333 384 753.066667 821.333333 512 821.333333z m0-810.666666c-204.8 0-373.333333 168.533333-373.333333 373.333333S307.2 757.333333 512 757.333333 885.333333 588.8 885.333333 384 716.8 10.666667 512 10.666667zM682.666667 416h-138.666667V554.666667c0 17.066667-14.933333 32-32 32s-32-14.933333-32-32v-138.666667H341.333333c-17.066667 0-32-14.933333-32-32s14.933333-32 32-32h138.666667V213.333333c0-17.066667 14.933333-32 32-32s32 14.933333 32 32v138.666667H682.666667c17.066667 0 32 14.933333 32 32s-14.933333 32-32 32z"  horiz-adv-x="1024" />

    
    <glyph glyph-name="adjust" unicode="&#58982;" d="M522.666667 437.333333c-17.066667 0-32-14.933333-32-32v-362.666666c0-17.066667 14.933333-32 32-32S554.666667 25.6 554.666667 42.666667V405.333333c0 17.066667-14.933333 32-32 32zM341.333333 341.333333H106.666667c-17.066667 0-32-14.933333-32-32S89.6 277.333333 106.666667 277.333333h74.666666v-234.666666c0-17.066667 14.933333-32 32-32s32 14.933333 32 32V277.333333H341.333333c17.066667 0 32 14.933333 32 32S358.4 341.333333 341.333333 341.333333zM693.333333 522.666667c0 17.066667-14.933333 32-32 32h-106.666666V725.333333c0 17.066667-14.933333 32-32 32S490.666667 742.4 490.666667 725.333333v-170.666666h-106.666667c-17.066667 0-32-14.933333-32-32S366.933333 490.666667 384 490.666667h277.333333c17.066667 0 32 14.933333 32 32zM917.333333 277.333333H682.666667c-17.066667 0-32-14.933333-32-32S665.6 213.333333 682.666667 213.333333h96v-170.666666c0-17.066667 14.933333-32 32-32s32 14.933333 32 32v170.666666H917.333333c17.066667 0 32 14.933333 32 32S934.4 277.333333 917.333333 277.333333zM213.333333 437.333333c17.066667 0 32 14.933333 32 32V725.333333c0 17.066667-14.933333 32-32 32S181.333333 742.4 181.333333 725.333333v-256c0-17.066667 14.933333-32 32-32zM810.666667 373.333333c17.066667 0 32 14.933333 32 32V725.333333c0 17.066667-14.933333 32-32 32s-32-14.933333-32-32v-320c0-17.066667 14.933333-32 32-32z"  horiz-adv-x="1024" />

    
    <glyph glyph-name="arrow-up-circle" unicode="&#58983;" d="M512 821.333333C270.933333 821.333333 74.666667 625.066667 74.666667 384S270.933333-53.333333 512-53.333333 949.333333 142.933333 949.333333 384 753.066667 821.333333 512 821.333333z m0-810.666666c-204.8 0-373.333333 168.533333-373.333333 373.333333S307.2 757.333333 512 757.333333 885.333333 588.8 885.333333 384 716.8 10.666667 512 10.666667zM533.333333 588.8c-12.8 10.666667-32 10.666667-44.8 0l-181.333333-170.666667c-12.8-12.8-12.8-32-2.133333-44.8s32-12.8 44.8-2.133333l128 119.466667v-277.333334c0-17.066667 14.933333-32 32-32s32 14.933333 32 32V490.666667l128-119.466667c6.4-6.4 14.933333-8.533333 21.333333-8.533333 8.533333 0 17.066667 4.266667 23.466667 10.666666 12.8 12.8 10.666667 34.133333-2.133334 44.8l-179.2 170.666667z"  horiz-adv-x="1024" />

    
    <glyph glyph-name="arrow-right-circle" unicode="&#58984;" d="M512 821.333333C270.933333 821.333333 74.666667 625.066667 74.666667 384S270.933333-53.333333 512-53.333333 949.333333 142.933333 949.333333 384 753.066667 821.333333 512 821.333333z m0-810.666666c-204.8 0-373.333333 168.533333-373.333333 373.333333S307.2 757.333333 512 757.333333 885.333333 588.8 885.333333 384 716.8 10.666667 512 10.666667zM546.133333 586.666667c-12.8 12.8-32 12.8-44.8 2.133333-12.8-12.8-12.8-32-2.133333-44.8l119.466667-128H341.333333c-17.066667 0-32-14.933333-32-32s14.933333-32 32-32h277.333334l-119.466667-128c-12.8-12.8-10.666667-34.133333 2.133333-44.8 6.4-6.4 14.933333-8.533333 21.333334-8.533333 8.533333 0 17.066667 4.266667 23.466666 10.666666l170.666667 181.333334c10.666667 12.8 10.666667 32 0 44.8l-170.666667 179.2z"  horiz-adv-x="1024" />

    
    <glyph glyph-name="ashbin" unicode="&#58985;" d="M874.666667 654.933333h-202.666667V725.333333c0 40.533333-34.133333 74.666667-74.666667 74.666667h-170.666666c-40.533333 0-74.666667-34.133333-74.666667-74.666667v-70.4H149.333333c-17.066667 0-32-14.933333-32-32s14.933333-32 32-32h53.333334V42.666667c0-40.533333 34.133333-74.666667 74.666666-74.666667h469.333334c40.533333 0 74.666667 34.133333 74.666666 74.666667V590.933333H874.666667c17.066667 0 32 14.933333 32 32s-14.933333 32-32 32zM416 725.333333c0 6.4 4.266667 10.666667 10.666667 10.666667h170.666666c6.4 0 10.666667-4.266667 10.666667-10.666667v-70.4h-192V725.333333z m341.333333-682.666666c0-6.4-4.266667-10.666667-10.666666-10.666667H277.333333c-6.4 0-10.666667 4.266667-10.666666 10.666667V586.666667h490.666666V42.666667zM426.666667 160c17.066667 0 32 14.933333 32 32V405.333333c0 17.066667-14.933333 32-32 32s-32-14.933333-32-32v-213.333333c0-17.066667 14.933333-32 32-32zM597.333333 160c17.066667 0 32 14.933333 32 32V405.333333c0 17.066667-14.933333 32-32 32s-32-14.933333-32-32v-213.333333c0-17.066667 14.933333-32 32-32z"  horiz-adv-x="1024" />

    
    <glyph glyph-name="browse" unicode="&#58986;" d="M512 59.733333C230.4 59.733333 74.666667 362.666667 68.266667 375.466667c-4.266667 8.533333-4.266667 19.2 0 29.866666 6.4 12.8 164.266667 315.733333 443.733333 315.733334 281.6 0 437.333333-305.066667 443.733333-317.866667 4.266667-8.533333 4.266667-19.2 0-29.866667-6.4-10.666667-162.133333-313.6-443.733333-313.6zM132.266667 390.4c34.133333-57.6 170.666667-266.666667 379.733333-266.666667s345.6 209.066667 379.733333 266.666667c-34.133333 57.6-170.666667 266.666667-379.733333 266.666667S166.4 448 132.266667 390.4zM512 245.333333c-76.8 0-138.666667 61.866667-138.666667 138.666667s61.866667 138.666667 138.666667 138.666667 138.666667-61.866667 138.666667-138.666667-61.866667-138.666667-138.666667-138.666667z m0 213.333334c-40.533333 0-74.666667-34.133333-74.666667-74.666667s34.133333-74.666667 74.666667-74.666667 74.666667 34.133333 74.666667 74.666667-34.133333 74.666667-74.666667 74.666667z"  horiz-adv-x="1024" />

    
    <glyph glyph-name="bottom" unicode="&#58987;" d="M896 32H128c-17.066667 0-32-14.933333-32-32s14.933333-32 32-32h768c17.066667 0 32 14.933333 32 32s-14.933333 32-32 32zM488.533333 168.533333c6.4-6.4 14.933333-8.533333 23.466667-8.533333s17.066667 2.133333 23.466667 8.533333l213.333333 213.333334c12.8 12.8 12.8 32 0 44.8-12.8 12.8-32 12.8-44.8 0l-157.866667-157.866667V725.333333c0 17.066667-14.933333 32-32 32s-34.133333-14.933333-34.133333-32v-456.533333L322.133333 426.666667c-12.8 12.8-32 12.8-44.8 0-12.8-12.8-12.8-32 0-44.8l211.2-213.333334z"  horiz-adv-x="1024" />

    
    <glyph glyph-name="back" unicode="&#58988;" d="M853.333333 650.666667H245.333333l93.866667 93.866666c12.8 12.8 12.8 34.133333 0 46.933334-12.8 12.8-34.133333 12.8-46.933333 0l-145.066667-145.066667c-12.8-12.8-12.8-34.133333 0-46.933333l145.066667-145.066667c6.4-6.4 14.933333-10.666667 23.466666-10.666667s17.066667 4.266667 23.466667 10.666667c12.8 12.8 12.8 34.133333 0 46.933333L256 584.533333h597.333333c6.4 0 10.666667-4.266667 10.666667-10.666666v-426.666667c0-6.4-4.266667-10.666667-10.666667-10.666667H170.666667c-17.066667 0-32-14.933333-32-32s14.933333-32 32-32h682.666666c40.533333 0 74.666667 34.133333 74.666667 74.666667V576c0 40.533333-34.133333 74.666667-74.666667 74.666667z"  horiz-adv-x="1024" />

    
    <glyph glyph-name="bad" unicode="&#58989;" d="M904.533333 373.333333L853.333333 710.4c-8.533333 51.2-55.466667 89.6-106.666666 89.6H204.8c-59.733333 0-108.8-46.933333-108.8-106.666667v-258.133333c0-57.6 49.066667-106.666667 108.8-106.666667h91.733333l125.866667-281.6c2.133333-2.133333 2.133333-4.266667 4.266667-6.4 14.933333-23.466667 38.4-36.266667 64-36.266666 12.8 0 25.6 4.266667 38.4 10.666666 57.6 34.133333 87.466667 72.533333 87.466666 117.333334v117.333333h183.466667c32 0 59.733333 12.8 81.066667 36.266667 19.2 25.6 29.866667 55.466667 23.466666 87.466666z m-616.533333 21.333334H204.8c-25.6 0-44.8 19.2-44.8 42.666666v256c0 23.466667 19.2 42.666667 44.8 42.666667h83.2v-341.333333zM832 328.533333c-8.533333-8.533333-21.333333-14.933333-34.133333-14.933333h-213.333334c-17.066667 0-32-14.933333-32-32v-149.333333c0-25.6-29.866667-49.066667-55.466666-64-4.266667-2.133333-10.666667-2.133333-14.933334 4.266666L352 362.666667V736H746.666667c21.333333 0 40.533333-14.933333 42.666666-36.266667L842.666667 362.666667c2.133333-10.666667-2.133333-23.466667-10.666667-34.133334z"  horiz-adv-x="1024" />

    
    <glyph glyph-name="arrow-double-left" unicode="&#58990;" d="M842.666667 32c-8.533333 0-14.933333 2.133333-21.333334 8.533333l-341.333333 309.333334c-6.4 6.4-10.666667 14.933333-10.666667 23.466666 0 8.533333 4.266667 17.066667 10.666667 23.466667l341.333333 309.333333c12.8 12.8 34.133333 10.666667 44.8-2.133333 12.8-12.8 10.666667-34.133333-2.133333-44.8L548.266667 373.333333l315.733333-285.866666c12.8-10.666667 14.933333-32 2.133333-44.8-6.4-6.4-14.933333-10.666667-23.466666-10.666667zM512 32c-8.533333 0-14.933333 2.133333-21.333333 8.533333L149.333333 349.866667c-6.4 6.4-10.666667 14.933333-10.666666 23.466666 0 8.533333 4.266667 17.066667 10.666666 23.466667L490.666667 706.133333c12.8 12.8 34.133333 10.666667 44.8-2.133333 12.8-12.8 10.666667-34.133333-2.133334-44.8L217.6 373.333333 533.333333 87.466667c12.8-12.8 14.933333-32 2.133334-44.8-6.4-6.4-14.933333-10.666667-23.466667-10.666667z"  horiz-adv-x="1024" />

    
    <glyph glyph-name="arrow-left-circle" unicode="&#58991;" d="M512 821.333333C270.933333 821.333333 74.666667 625.066667 74.666667 384S270.933333-53.333333 512-53.333333 949.333333 142.933333 949.333333 384 753.066667 821.333333 512 821.333333z m0-810.666666c-204.8 0-373.333333 168.533333-373.333333 373.333333S307.2 757.333333 512 757.333333 885.333333 588.8 885.333333 384 716.8 10.666667 512 10.666667zM682.666667 416H405.333333l119.466667 128c12.8 12.8 10.666667 34.133333-2.133333 44.8s-34.133333 10.666667-44.8-2.133333l-170.666667-181.333334c-10.666667-12.8-10.666667-32 0-44.8l170.666667-181.333333c6.4-6.4 14.933333-10.666667 23.466666-10.666667 8.533333 0 14.933333 2.133333 21.333334 8.533334 12.8 12.8 12.8 32 2.133333 44.8l-119.466667 128h277.333334c17.066667 0 32 14.933333 32 32s-14.933333 34.133333-32 34.133333z"  horiz-adv-x="1024" />

    
    <glyph glyph-name="arrow-double-right" unicode="&#58992;" d="M544 373.333333c0 8.533333-4.266667 17.066667-10.666667 23.466667L192 706.133333c-12.8 12.8-34.133333 10.666667-44.8-2.133333-12.8-12.8-10.666667-34.133333 2.133333-44.8l315.733334-285.866667L149.333333 87.466667c-12.8-12.8-14.933333-32-2.133333-44.8 6.4-6.4 14.933333-10.666667 23.466667-10.666667 8.533333 0 14.933333 2.133333 21.333333 8.533333l341.333333 309.333334c6.4 6.4 10.666667 14.933333 10.666667 23.466666zM864 396.8l-341.333333 309.333333c-12.8 12.8-34.133333 10.666667-44.8-2.133333-12.8-12.8-10.666667-34.133333 2.133333-44.8l315.733333-285.866667-315.733333-285.866666c-12.8-12.8-14.933333-32-2.133333-44.8 6.4-6.4 14.933333-10.666667 23.466666-10.666667 8.533333 0 14.933333 2.133333 21.333334 8.533333l341.333333 309.333334c6.4 6.4 10.666667 14.933333 10.666667 23.466666 0 8.533333-4.266667 17.066667-10.666667 23.466667z"  horiz-adv-x="1024" />

    
    <glyph glyph-name="camera" unicode="&#58993;" d="M846.933333 657.066667h-140.8L646.4 746.666667c-6.4 10.666667-17.066667 17.066667-29.866667 17.066666h-209.066666c-12.8 0-23.466667-6.4-29.866667-17.066666l-59.733333-89.6H177.066667c-57.6 0-106.666667-46.933333-106.666667-106.666667v-426.666667c0-57.6 46.933333-106.666667 106.666667-106.666666h672c57.6 0 106.666667 46.933333 106.666666 106.666666v426.666667c-2.133333 59.733333-49.066667 106.666667-108.8 106.666667z m34.133334-533.333334c0-19.2-14.933333-34.133333-34.133334-34.133333H177.066667c-19.2 0-34.133333 14.933333-34.133334 34.133333v426.666667c0 19.2 14.933333 34.133333 34.133334 34.133333h160c12.8 0 23.466667 6.4 29.866666 17.066667L426.666667 689.066667h170.666666l59.733334-89.6c6.4-10.666667 17.066667-17.066667 29.866666-17.066667h160c19.2 0 34.133333-14.933333 34.133334-34.133333v-424.533334zM512 531.2c-96 0-174.933333-78.933333-174.933333-174.933333 0-96 78.933333-174.933333 174.933333-174.933334 96 0 174.933333 78.933333 174.933333 174.933334 0 96-78.933333 174.933333-174.933333 174.933333z m0-279.466667c-57.6 0-104.533333 46.933333-104.533333 104.533334s46.933333 104.533333 104.533333 104.533333 104.533333-46.933333 104.533333-104.533333-46.933333-104.533333-104.533333-104.533334z"  horiz-adv-x="1024" />

    
    <glyph glyph-name="chart-bar" unicode="&#58994;" d="M149.333333 96h128c29.866667 0 53.333333 23.466667 53.333334 53.333333V362.666667c0 29.866667-23.466667 53.333333-53.333334 53.333333H149.333333c-29.866667 0-53.333333-23.466667-53.333333-53.333333v-213.333334c0-29.866667 23.466667-53.333333 53.333333-53.333333z m10.666667 256h106.666667v-192h-106.666667v192zM448 96h128c29.866667 0 53.333333 23.466667 53.333333 53.333333V746.666667c0 29.866667-23.466667 53.333333-53.333333 53.333333h-128c-29.866667 0-53.333333-23.466667-53.333333-53.333333v-597.333334c0-29.866667 23.466667-53.333333 53.333333-53.333333z m10.666667 640h106.666666v-576h-106.666666v576zM874.666667 586.666667h-128c-29.866667 0-53.333333-23.466667-53.333334-53.333334v-384c0-29.866667 23.466667-53.333333 53.333334-53.333333h128c29.866667 0 53.333333 23.466667 53.333333 53.333333V533.333333c0 29.866667-23.466667 53.333333-53.333333 53.333334z m-10.666667-426.666667h-106.666667v362.666667h106.666667v-362.666667zM896 42.666667H128c-17.066667 0-32-14.933333-32-32S110.933333-21.333333 128-21.333333h768c17.066667 0 32 14.933333 32 32S913.066667 42.666667 896 42.666667z"  horiz-adv-x="1024" />

    
    <glyph glyph-name="attachment" unicode="&#58995;" d="M874.666667 428.8c-10.666667 10.666667-29.866667 12.8-42.666667 0l-343.466667-341.333333c-74.666667-74.666667-198.4-74.666667-275.2 0-36.266667 36.266667-57.6 85.333333-57.6 136.533333s19.2 100.266667 57.6 136.533333L556.8 704c46.933333 46.933333 121.6 46.933333 168.533333 0 23.466667-23.466667 34.133333-53.333333 34.133334-83.2 0-32-12.8-61.866667-34.133334-83.2L384 192c-17.066667-17.066667-44.8-17.066667-64 0-8.533333 8.533333-12.8 19.2-12.8 32s4.266667 23.466667 12.8 32l317.866667 315.733333c10.666667 10.666667 12.8 29.866667 0 42.666667-10.666667 12.8-29.866667 12.8-42.666667 0L277.333333 298.666667c-19.2-19.2-29.866667-46.933333-29.866666-74.666667S258.133333 170.666667 277.333333 149.333333c40.533333-40.533333 106.666667-40.533333 147.2 0L768 492.8c34.133333 34.133333 53.333333 78.933333 53.333333 125.866667s-19.2 93.866667-53.333333 125.866666a178.986667 178.986667 0 0 1-253.866667 0l-341.333333-341.333333c-46.933333-46.933333-74.666667-110.933333-74.666667-179.2s25.6-132.266667 74.666667-179.2c49.066667-49.066667 115.2-74.666667 179.2-74.666667s130.133333 25.6 179.2 74.666667l343.466667 341.333333c10.666667 12.8 10.666667 32 0 42.666667z"  horiz-adv-x="1024" />

    
    <glyph glyph-name="code" unicode="&#58996;" d="M322.133333 599.466667c-12.8 12.8-32 12.8-44.8 0l-192-192c-12.8-12.8-12.8-32 0-44.8l192-192c6.4-6.4 14.933333-8.533333 23.466667-8.533334s17.066667 2.133333 23.466667 8.533334c12.8 12.8 12.8 32 0 44.8L151.466667 384l168.533333 168.533333c12.8 12.8 12.8 34.133333 2.133333 46.933334zM940.8 407.466667l-192 192c-12.8 12.8-32 12.8-44.8 0-12.8-12.8-12.8-32 0-44.8l168.533333-168.533334-168.533333-168.533333c-12.8-12.8-12.8-32 0-44.8 6.4-6.4 14.933333-8.533333 23.466667-8.533333s17.066667 2.133333 23.466666 8.533333l192 192c8.533333 8.533333 8.533333 29.866667-2.133333 42.666667zM622.933333 819.2c-17.066667 4.266667-34.133333-6.4-38.4-23.466667L366.933333-6.4c-4.266667-17.066667 6.4-34.133333 23.466667-38.4 2.133333 0 6.4-2.133333 8.533333-2.133333 14.933333 0 27.733333 8.533333 29.866667 23.466666L644.266667 780.8c4.266667 17.066667-4.266667 34.133333-21.333334 38.4z"  horiz-adv-x="1024" />

    
    <glyph glyph-name="close" unicode="&#58997;" d="M556.8 384L832 659.2c12.8 12.8 12.8 32 0 44.8-12.8 12.8-32 12.8-44.8 0L512 428.8l-275.2 277.333333c-12.8 12.8-32 12.8-44.8 0-12.8-12.8-12.8-32 0-44.8l275.2-277.333333-277.333333-275.2c-12.8-12.8-12.8-32 0-44.8 6.4-6.4 14.933333-8.533333 23.466666-8.533333s17.066667 2.133333 23.466667 8.533333L512 339.2 787.2 64c6.4-6.4 14.933333-8.533333 23.466667-8.533333s17.066667 2.133333 23.466666 8.533333c12.8 12.8 12.8 32 0 44.8L556.8 384z"  horiz-adv-x="1024" />

    
    <glyph glyph-name="check-item" unicode="&#58998;" d="M853.333333 800H170.666667C130.133333 800 96 765.866667 96 725.333333v-682.666666c0-40.533333 34.133333-74.666667 74.666667-74.666667h682.666666c40.533333 0 74.666667 34.133333 74.666667 74.666667V725.333333c0 40.533333-34.133333 74.666667-74.666667 74.666667z m10.666667-757.333333c0-6.4-4.266667-10.666667-10.666667-10.666667H170.666667c-6.4 0-10.666667 4.266667-10.666667 10.666667V725.333333c0 6.4 4.266667 10.666667 10.666667 10.666667h682.666666c6.4 0 10.666667-4.266667 10.666667-10.666667v-682.666666zM704 514.133333l-243.2-234.666666-117.333333 125.866666c-12.8 12.8-32 12.8-44.8 2.133334-12.8-12.8-12.8-32-2.133334-44.8l140.8-149.333334c6.4-6.4 14.933333-10.666667 23.466667-10.666666 8.533333 0 17.066667 4.266667 21.333333 8.533333l264.533334 256c12.8 12.8 12.8 32 0 44.8-10.666667 12.8-29.866667 14.933333-42.666667 2.133333z"  horiz-adv-x="1024" />

    
    <glyph glyph-name="calendar" unicode="&#58999;" d="M853.333333 746.666667h-138.666666V789.333333c0 17.066667-14.933333 32-32 32s-32-14.933333-32-32v-42.666666h-277.333334V789.333333c0 17.066667-14.933333 32-32 32s-32-14.933333-32-32v-42.666666H170.666667c-40.533333 0-74.666667-34.133333-74.666667-74.666667v-618.666667C96 12.8 130.133333-21.333333 170.666667-21.333333h682.666666c40.533333 0 74.666667 34.133333 74.666667 74.666666v618.666667C928 712.533333 893.866667 746.666667 853.333333 746.666667zM170.666667 682.666667h138.666666v-64c0-17.066667 14.933333-32 32-32s32 14.933333 32 32v64h277.333334v-64c0-17.066667 14.933333-32 32-32s32 14.933333 32 32v64H853.333333c6.4 0 10.666667-4.266667 10.666667-10.666667v-194.133333c-4.266667 2.133333-6.4 2.133333-10.666667 2.133333H170.666667c-4.266667 0-6.4 0-10.666667-2.133333v194.133333c0 6.4 4.266667 10.666667 10.666667 10.666667z m682.666666-640H170.666667c-6.4 0-10.666667 4.266667-10.666667 10.666666V418.133333c4.266667-2.133333 6.4-2.133333 10.666667-2.133333h682.666666c4.266667 0 6.4 0 10.666667 2.133333v-364.8c0-6.4-4.266667-10.666667-10.666667-10.666666zM384 288h-85.333333c-17.066667 0-32-14.933333-32-32s14.933333-32 32-32h85.333333c17.066667 0 32 14.933333 32 32s-14.933333 32-32 32zM725.333333 288h-192c-17.066667 0-32-14.933333-32-32s14.933333-32 32-32h192c17.066667 0 32 14.933333 32 32s-14.933333 32-32 32z"  horiz-adv-x="1024" />

    
    <glyph glyph-name="comment" unicode="&#59000;" d="M853.333333 757.333333H170.666667c-40.533333 0-74.666667-34.133333-74.666667-74.666666v-512c0-40.533333 34.133333-74.666667 74.666667-74.666667h151.466666V-21.333333c0-12.8 8.533333-25.6 19.2-29.866667 4.266667-2.133333 8.533333-2.133333 12.8-2.133333 8.533333 0 17.066667 4.266667 23.466667 10.666666l136.533333 138.666667H853.333333c40.533333 0 74.666667 34.133333 74.666667 74.666667V682.666667c0 40.533333-34.133333 74.666667-74.666667 74.666666z m10.666667-586.666666c0-6.4-4.266667-10.666667-10.666667-10.666667H501.333333c-8.533333 0-17.066667-4.266667-23.466666-10.666667l-89.6-93.866666V128c0 17.066667-14.933333 32-32 32H170.666667c-6.4 0-10.666667 4.266667-10.666667 10.666667V682.666667c0 6.4 4.266667 10.666667 10.666667 10.666666h682.666666c6.4 0 10.666667-4.266667 10.666667-10.666666v-512zM512 405.333333H298.666667c-17.066667 0-32-14.933333-32-32S281.6 341.333333 298.666667 341.333333h213.333333c17.066667 0 32 14.933333 32 32S529.066667 405.333333 512 405.333333zM672 554.666667H298.666667c-17.066667 0-32-14.933333-32-32S281.6 490.666667 298.666667 490.666667h373.333333c17.066667 0 32 14.933333 32 32s-14.933333 32-32 32z"  horiz-adv-x="1024" />

    
    <glyph glyph-name="complete" unicode="&#59001;" d="M874.666667 394.666667c-17.066667 0-32-14.933333-32-32v-298.666667c0-6.4-4.266667-10.666667-10.666667-10.666667H192c-6.4 0-10.666667 4.266667-10.666667 10.666667V704c0 6.4 4.266667 10.666667 10.666667 10.666667h469.333333c17.066667 0 32 14.933333 32 32s-14.933333 32-32 32H192C151.466667 778.666667 117.333333 744.533333 117.333333 704v-640c0-40.533333 34.133333-74.666667 74.666667-74.666667h640c40.533333 0 74.666667 34.133333 74.666667 74.666667V362.666667c0 17.066667-14.933333 32-32 32zM940.8 727.466667c-12.8 12.8-32 12.8-44.8 0l-390.4-384-106.666667 106.666666c-12.8 12.8-32 12.8-44.8 0-12.8-12.8-12.8-32 0-44.8l130.133334-128c6.4-6.4 14.933333-8.533333 23.466666-8.533333s17.066667 2.133333 23.466667 8.533333l411.733333 405.333334c8.533333 10.666667 10.666667 32-2.133333 44.8z"  horiz-adv-x="1024" />

    
    <glyph glyph-name="chart-pie" unicode="&#59002;" d="M887.466667 253.866667c-17.066667 6.4-34.133333 0-42.666667-17.066667-64-151.466667-221.866667-243.2-386.133333-221.866667-164.266667 21.333333-294.4 149.333333-315.733334 313.6C119.466667 490.666667 209.066667 650.666667 358.4 716.8c17.066667 6.4 23.466667 25.6 17.066667 42.666667-6.4 17.066667-25.6 23.466667-42.666667 17.066666C155.733333 697.6 51.2 509.866667 78.933333 317.866667c27.733333-192 179.2-343.466667 371.2-369.066667 19.2-2.133333 36.266667-4.266667 55.466667-4.266667 170.666667 0 330.666667 102.4 398.933333 264.533334 6.4 17.066667-2.133333 36.266667-17.066666 44.8zM814.933333 686.933333C727.466667 774.4 612.266667 821.333333 490.666667 821.333333c-17.066667 0-32-14.933333-32-32v-426.666666c0-17.066667 14.933333-32 32-32h426.666666c17.066667 0 32 14.933333 32 32 0 121.6-46.933333 236.8-134.4 324.266666zM522.666667 394.666667V755.2c93.866667-6.4 179.2-46.933333 247.466666-115.2 66.133333-66.133333 106.666667-153.6 115.2-247.466667h-362.666666z"  horiz-adv-x="1024" />

    
    <glyph glyph-name="cry" unicode="&#59003;" d="M512 821.333333C270.933333 821.333333 74.666667 625.066667 74.666667 384S270.933333-53.333333 512-53.333333 949.333333 142.933333 949.333333 384 753.066667 821.333333 512 821.333333z m0-810.666666c-204.8 0-373.333333 168.533333-373.333333 373.333333S307.2 757.333333 512 757.333333 885.333333 588.8 885.333333 384 716.8 10.666667 512 10.666667zM512 298.666667c-81.066667 0-151.466667-36.266667-211.2-106.666667-10.666667-12.8-8.533333-34.133333 4.266667-44.8 12.8-10.666667 34.133333-8.533333 44.8 4.266667 46.933333 57.6 100.266667 85.333333 162.133333 85.333333s115.2-27.733333 162.133333-85.333333c6.4-8.533333 14.933333-10.666667 25.6-10.666667 6.4 0 14.933333 2.133333 21.333334 6.4 12.8 10.666667 14.933333 32 4.266666 44.8-61.866667 70.4-132.266667 106.666667-213.333333 106.666667zM362.666667 384c23.466667 0 42.666667 19.2 42.666666 42.666667v64c0 23.466667-19.2 42.666667-42.666666 42.666666s-42.666667-19.2-42.666667-42.666666v-64c0-23.466667 19.2-42.666667 42.666667-42.666667zM661.333333 384c23.466667 0 42.666667 19.2 42.666667 42.666667v64c0 23.466667-19.2 42.666667-42.666667 42.666666s-42.666667-19.2-42.666666-42.666666v-64c0-23.466667 19.2-42.666667 42.666666-42.666667z"  horiz-adv-x="1024" />

    
    <glyph glyph-name="delete" unicode="&#59004;" d="M874.666667 693.333333H360.533333c-21.333333 0-40.533333-8.533333-55.466666-23.466666l-217.6-234.666667c-25.6-27.733333-25.6-72.533333 0-100.266667l217.6-234.666666c14.933333-14.933333 34.133333-23.466667 55.466666-23.466667H874.666667c40.533333 0 74.666667 34.133333 74.666666 74.666667V618.666667c0 40.533333-34.133333 74.666667-74.666666 74.666666z m10.666666-544c0-6.4-4.266667-10.666667-10.666666-10.666666H360.533333c-2.133333 0-6.4 2.133333-8.533333 4.266666l-217.6 234.666667c-4.266667 4.266667-4.266667 10.666667 0 14.933333l217.6 234.666667c2.133333 2.133333 4.266667 4.266667 8.533333 4.266667H874.666667c6.4 0 10.666667-4.266667 10.666666-10.666667V149.333333zM684.8 492.8c-12.8 12.8-32 12.8-44.8 0l-64-64-61.866667 61.866667c-12.8 12.8-32 12.8-44.8 0-12.8-12.8-12.8-32 0-44.8l61.866667-61.866667-61.866667-61.866667c-12.8-12.8-12.8-32 0-44.8 6.4-6.4 14.933333-8.533333 23.466667-8.533333s17.066667 2.133333 23.466667 8.533333l61.866666 61.866667L640 277.333333c6.4-6.4 14.933333-8.533333 23.466667-8.533333s17.066667 2.133333 23.466666 8.533333c12.8 12.8 12.8 32 0 44.8L620.8 384l61.866667 61.866667c12.8 12.8 12.8 34.133333 2.133333 46.933333z"  horiz-adv-x="1024" />

    
    </font>
</defs>
</svg>
